<svg width="24" height="24" viewBox="0 0 24 24" fill="none" xmlns="http://www.w3.org/2000/svg">
<path d="M9 1H19C19.5304 1 20.0391 1.21071 20.4142 1.58579C20.7893 1.96086 21 2.46957 21 3V19L19 18.13V3H7C7 2.46957 7.21071 1.96086 7.58579 1.58579C7.96086 1.21071 8.46957 1 9 1ZM15 20V7H5V20L10 17.82L15 20ZM15 5C15.5304 5 16.0391 5.21071 16.4142 5.58579C16.7893 5.96086 17 6.46957 17 7V23L10 20L3 23V7C3 6.46957 3.21071 5.96086 3.58579 5.58579C3.96086 5.21071 4.46957 5 5 5H15Z" fill="#1E3054"/>
</svg>
