<svg width="23" height="23" viewBox="0 0 23 23" fill="none" xmlns="http://www.w3.org/2000/svg">
<path d="M22.7961 9.42757C22.9329 10.1994 23.0011 10.9815 23 11.7649C23 15.2636 21.7242 18.2219 19.5039 20.2243H19.5069C17.5653 21.9823 14.8963 23 11.7317 23C8.62025 23 5.63625 21.7884 3.43613 19.6318C1.23601 17.4752 0 14.5503 0 11.5004C0 8.45049 1.23601 5.52552 3.43613 3.36892C5.63625 1.21232 8.62025 0.000758812 11.7317 0.000758812C14.644 -0.032674 17.4565 1.0398 19.5802 2.99354L16.2308 6.27668C15.0201 5.14537 13.4042 4.52585 11.7317 4.55173C8.67119 4.55173 6.07115 6.57567 5.14435 9.30108C4.65295 10.7292 4.65295 12.2759 5.14435 13.704H5.14875C6.07995 16.4251 8.67559 18.449 11.7361 18.449C13.3169 18.449 14.6749 18.0523 15.7278 17.3508H15.7234C16.3348 16.9538 16.8578 16.4395 17.2608 15.8389C17.6638 15.2383 17.9385 14.5639 18.0683 13.8564H11.7317V9.42901L22.7961 9.42757Z" fill="#1E3054"/>
</svg>
