<svg width="38" height="37" viewBox="0 0 38 37" fill="none" xmlns="http://www.w3.org/2000/svg">
<rect width="38" height="37" rx="18.5" fill="#D0D4E8"/>
<path fill-rule="evenodd" clip-rule="evenodd" d="M17.112 4.63604C16.5105 4.68327 16.3875 4.69749 16.3604 4.72266C16.345 4.73695 16.2628 4.74871 16.1776 4.74871C16.0925 4.74871 16.0146 4.76177 16.0046 4.77773C15.9945 4.79369 15.9215 4.80675 15.8422 4.80675C15.7629 4.80675 15.6898 4.81981 15.6797 4.83577C15.6697 4.85173 15.6091 4.86479 15.5451 4.86479C15.4811 4.86479 15.4287 4.87785 15.4287 4.89381C15.4287 4.90977 15.3697 4.92283 15.2976 4.92283C15.2255 4.92283 15.1582 4.93589 15.1482 4.95185C15.1381 4.96781 15.085 4.98087 15.03 4.98087C14.9751 4.98087 14.922 4.99393 14.9119 5.00989C14.9019 5.02585 14.8554 5.03891 14.8086 5.03891C14.7617 5.03891 14.7152 5.05197 14.7052 5.06793C14.6952 5.08389 14.6412 5.09695 14.5853 5.09695C14.5294 5.09695 14.4837 5.11001 14.4837 5.12597C14.4837 5.14193 14.4438 5.15499 14.3951 5.15499C14.3464 5.15499 14.3065 5.16805 14.3065 5.18401C14.3065 5.19997 14.26 5.21303 14.2032 5.21303C14.1463 5.21303 14.0998 5.22609 14.0998 5.24205C14.0998 5.25801 14.0599 5.27107 14.0112 5.27107C13.9625 5.27107 13.9226 5.28413 13.9226 5.30009C13.9226 5.31605 13.8827 5.32911 13.834 5.32911C13.7853 5.32911 13.7454 5.34217 13.7454 5.35813C13.7454 5.37409 13.7188 5.38715 13.6864 5.38715C13.6539 5.38715 13.6273 5.40021 13.6273 5.41617C13.6273 5.43214 13.5874 5.44519 13.5387 5.44519C13.49 5.44519 13.4501 5.45825 13.4501 5.47421C13.4501 5.49018 13.4177 5.50324 13.378 5.50324C13.3384 5.50324 13.2977 5.51629 13.2877 5.53226C13.2776 5.54822 13.2436 5.56128 13.2121 5.56128C13.1806 5.56128 13.1548 5.57433 13.1548 5.5903C13.1548 5.60626 13.1216 5.61932 13.081 5.61932C13.0404 5.61932 13.0071 5.63238 13.0071 5.64834C13.0071 5.6643 12.9806 5.67736 12.9481 5.67736C12.9156 5.67736 12.889 5.69042 12.889 5.70638C12.889 5.72234 12.8566 5.7354 12.8169 5.7354C12.7773 5.7354 12.7366 5.74846 12.7266 5.76442C12.7165 5.78038 12.6891 5.79344 12.6656 5.79344C12.6421 5.79344 12.554 5.82609 12.4699 5.86599C12.3857 5.90589 12.2994 5.93854 12.2781 5.93854C12.2567 5.93854 12.2393 5.9516 12.2393 5.96756C12.2393 5.98352 12.2127 5.99658 12.1802 5.99658C12.1478 5.99658 12.1212 6.00964 12.1212 6.0256C12.1212 6.04156 12.0946 6.05462 12.0621 6.05462C12.0296 6.05462 12.0031 6.06521 12.0031 6.0782C12.0031 6.09119 11.9565 6.11977 11.8997 6.14168C11.8428 6.16359 11.7963 6.19218 11.7963 6.20516C11.7963 6.21815 11.7698 6.22874 11.7373 6.22874C11.7048 6.22874 11.6782 6.2418 11.6782 6.25776C11.6782 6.27372 11.6516 6.28678 11.6191 6.28678C11.5867 6.28678 11.5601 6.29984 11.5601 6.3158C11.5601 6.33177 11.5427 6.34482 11.5213 6.34482C11.5001 6.34482 11.4541 6.37094 11.4192 6.40286C11.3844 6.43479 11.3353 6.46091 11.3103 6.46091C11.2853 6.46091 11.2648 6.47396 11.2648 6.48993C11.2648 6.50589 11.2442 6.51895 11.2192 6.51895C11.1942 6.51895 11.1452 6.54506 11.1103 6.57699C11.0755 6.60891 11.0295 6.63503 11.0082 6.63503C10.9869 6.63503 10.9695 6.64809 10.9695 6.66405C10.9695 6.68001 10.9458 6.69307 10.9169 6.69307C10.888 6.69307 10.8452 6.71919 10.8218 6.75111C10.7984 6.78303 10.7556 6.80915 10.7267 6.80915C10.6978 6.80915 10.6741 6.82119 10.6741 6.83585C10.6741 6.89251 11.1672 6.8986 15.0596 6.89033L19.0759 6.8817L19.0946 6.21423C19.1171 5.41095 19.1605 5.21724 19.4011 4.84781C19.5724 4.5846 19.6452 4.60288 18.4483 4.60876C17.8677 4.61159 17.2663 4.62385 17.112 4.63604ZM20.7001 4.88989C20.152 5.03187 19.996 5.3178 19.9821 6.20582L19.9718 6.86487L20.0406 6.88141C20.0785 6.89048 20.5148 6.89432 21.0102 6.88983L21.9109 6.8817V6.24325C21.9109 5.60822 21.9105 5.60394 21.8311 5.44512C21.6164 5.01562 21.1323 4.77794 20.7001 4.88989ZM22.7238 5.26382C22.7241 5.29175 22.7383 5.36684 22.7553 5.43068C22.7723 5.49453 22.7952 5.84713 22.8063 6.21423L22.8264 6.8817L24.4358 6.89026C26.0208 6.89875 26.3554 6.88932 26.3554 6.83607C26.3554 6.82127 26.3355 6.80915 26.3111 6.80915C26.2867 6.80915 26.2668 6.79609 26.2668 6.78013C26.2668 6.76417 26.2469 6.75111 26.2225 6.75111C26.1981 6.75111 26.1782 6.73805 26.1782 6.72209C26.1782 6.70613 26.1583 6.69307 26.1339 6.69307C26.1095 6.69307 26.0896 6.68001 26.0896 6.66405C26.0896 6.64809 26.0691 6.63503 26.0441 6.63503C26.019 6.63503 25.97 6.60891 25.9352 6.57699C25.9003 6.54506 25.8543 6.51895 25.8331 6.51895C25.8117 6.51895 25.7943 6.50589 25.7943 6.48993C25.7943 6.47396 25.7677 6.46091 25.7352 6.46091C25.7027 6.46091 25.6762 6.44785 25.6762 6.43189C25.6762 6.41592 25.6556 6.40286 25.6306 6.40286C25.6056 6.40286 25.5566 6.37675 25.5217 6.34482C25.4869 6.3129 25.4409 6.28678 25.4196 6.28678C25.3983 6.28678 25.3809 6.27372 25.3809 6.25776C25.3809 6.2418 25.3554 6.22874 25.3242 6.22874C25.2931 6.22874 25.2632 6.2183 25.2578 6.20545C25.2418 6.16766 24.5745 5.85663 24.4253 5.81745C24.3499 5.79765 24.2882 5.77102 24.2882 5.7584C24.2882 5.74577 24.2616 5.7354 24.2291 5.7354C24.1966 5.7354 24.1701 5.72234 24.1701 5.70638C24.1701 5.69042 24.1435 5.67736 24.111 5.67736C24.0785 5.67736 24.0519 5.6643 24.0519 5.64834C24.0519 5.63238 24.0187 5.61932 23.9781 5.61932C23.9375 5.61932 23.9043 5.60626 23.9043 5.5903C23.9043 5.57433 23.8711 5.56128 23.8304 5.56128C23.7898 5.56128 23.7566 5.54822 23.7566 5.53226C23.7566 5.51629 23.7234 5.50324 23.6828 5.50324C23.6422 5.50324 23.609 5.49018 23.609 5.47421C23.609 5.45825 23.5691 5.44519 23.5204 5.44519C23.4716 5.44519 23.4318 5.43214 23.4318 5.41617C23.4318 5.40021 23.3919 5.38715 23.3432 5.38715C23.2945 5.38715 23.2546 5.37409 23.2546 5.35813C23.2546 5.34217 23.2222 5.32911 23.1825 5.32911C23.1429 5.32911 23.1022 5.31605 23.0922 5.30009C23.0821 5.28413 23.0348 5.27107 22.987 5.27107C22.9393 5.27107 22.9002 5.25801 22.9002 5.24205C22.9002 5.22609 22.8603 5.21303 22.8116 5.21303C22.7466 5.21303 22.7232 5.2266 22.7238 5.26382ZM29.4698 9.63137C29.462 9.65133 29.4592 13.8172 29.4634 18.8889C29.4684 25.0168 29.4611 28.1136 29.4414 28.1206C29.4252 28.1264 29.421 28.1407 29.4321 28.1525C29.4553 28.1771 29.6629 27.9825 29.6629 27.9362C29.6629 27.9193 29.7227 27.8466 29.7958 27.7748C29.8689 27.703 29.9287 27.6346 29.9287 27.6229C29.9287 27.6112 29.9588 27.5691 29.9957 27.5294C30.0953 27.4218 30.2831 27.1629 30.2831 27.1332C30.2831 27.1189 30.3097 27.0883 30.3422 27.0653C30.3746 27.0423 30.4012 27.0032 30.4012 26.9783C30.4012 26.9534 30.4278 26.9142 30.4603 26.8912C30.4928 26.8682 30.5193 26.829 30.5193 26.8041C30.5193 26.7793 30.5459 26.7401 30.5784 26.7171C30.6109 26.6941 30.6375 26.6549 30.6375 26.63C30.6375 26.6051 30.6641 26.566 30.6965 26.543C30.729 26.52 30.7556 26.4839 30.7556 26.4628C30.7556 26.4417 30.78 26.3987 30.8099 26.3672C30.8398 26.3356 30.883 26.2742 30.9058 26.2305C30.9287 26.1869 30.9541 26.1447 30.9622 26.1367C30.9915 26.1081 31.0844 25.9471 31.1005 25.8973C31.1095 25.8693 31.1286 25.8465 31.143 25.8465C31.1573 25.8465 31.169 25.8214 31.169 25.7908C31.169 25.7603 31.1807 25.7309 31.195 25.7255C31.2289 25.7128 31.4348 25.3087 31.4348 25.2547C31.4348 25.2317 31.4448 25.2085 31.457 25.2032C31.4889 25.1892 31.612 24.9489 31.612 24.9006C31.612 24.8781 31.6253 24.8598 31.6415 24.8598C31.6578 24.8598 31.6711 24.8345 31.6711 24.8035C31.6711 24.7725 31.6844 24.7391 31.7006 24.7292C31.7169 24.7193 31.7301 24.6859 31.7301 24.6549C31.7301 24.6239 31.7434 24.5986 31.7597 24.5986C31.7759 24.5986 31.7892 24.5725 31.7892 24.5406C31.7892 24.5086 31.8025 24.4825 31.8187 24.4825C31.835 24.4825 31.8483 24.4572 31.8483 24.4262C31.8483 24.3952 31.8616 24.3618 31.8778 24.3519C31.894 24.3421 31.9073 24.3021 31.9073 24.2631C31.9073 24.2242 31.9206 24.1923 31.9369 24.1923C31.9531 24.1923 31.9664 24.1662 31.9664 24.1343C31.9664 24.1024 31.9797 24.0762 31.9959 24.0762C32.0122 24.0762 32.0255 24.0444 32.0255 24.0054C32.0255 23.9665 32.0387 23.9265 32.055 23.9166C32.0712 23.9068 32.0845 23.8668 32.0845 23.8278C32.0845 23.7889 32.0978 23.757 32.1141 23.757C32.1303 23.757 32.1436 23.7307 32.1436 23.6986C32.1436 23.6665 32.1569 23.6142 32.1731 23.5825C32.1894 23.5508 32.2159 23.4989 32.2322 23.4672C32.2484 23.4355 32.2617 23.384 32.2617 23.3528C32.2617 23.3216 32.275 23.288 32.2912 23.2782C32.3075 23.2683 32.3208 23.2226 32.3208 23.1766C32.3208 23.1306 32.3341 23.0849 32.3503 23.075C32.3665 23.0652 32.3798 23.0187 32.3798 22.9717C32.3798 22.9248 32.3931 22.8864 32.4094 22.8864C32.4256 22.8864 32.4389 22.8472 32.4389 22.7993C32.4389 22.7515 32.4522 22.7123 32.4684 22.7123C32.4847 22.7123 32.498 22.6674 32.498 22.6124C32.498 22.5575 32.5113 22.5045 32.5275 22.4946C32.5437 22.4848 32.557 22.4325 32.557 22.3785C32.557 22.3246 32.5694 22.2728 32.5846 22.2637C32.5997 22.2545 32.6214 22.1424 32.6328 22.0146C32.6441 21.8869 32.6649 21.7754 32.679 21.7668C32.6932 21.7582 32.7047 21.6997 32.7047 21.6368C32.7047 21.5739 32.718 21.5224 32.7342 21.5224C32.7505 21.5224 32.7637 21.4514 32.7637 21.3646C32.7637 21.2777 32.777 21.1986 32.7933 21.1887C32.8095 21.1788 32.8228 21.094 32.8228 21.0001C32.8228 20.9062 32.8361 20.8213 32.8523 20.8115C32.8686 20.8016 32.8819 20.6898 32.8819 20.563C32.8819 20.4287 32.8942 20.3326 32.9114 20.3326C32.9295 20.3326 32.9409 20.1924 32.9409 19.9699C32.9409 19.7473 32.9524 19.6071 32.9705 19.6071C32.9894 19.6071 33 19.3266 33 18.8236C33 18.3206 32.9894 18.04 32.9705 18.04C32.9523 18.04 32.9409 17.8949 32.9409 17.6627C32.9409 17.4306 32.9296 17.2855 32.9114 17.2855C32.8944 17.2855 32.8819 17.1941 32.8819 17.0696C32.8819 16.9508 32.8686 16.8455 32.8523 16.8357C32.8361 16.8258 32.8228 16.7336 32.8228 16.6308C32.8228 16.5255 32.8099 16.4439 32.7933 16.4439C32.777 16.4439 32.7637 16.3786 32.7637 16.2988C32.7637 16.219 32.7505 16.1537 32.7342 16.1537C32.718 16.1537 32.7047 16.0892 32.7047 16.0103C32.7047 15.9315 32.6929 15.8598 32.6787 15.8511C32.6644 15.8424 32.6433 15.7372 32.6319 15.6174C32.6204 15.4976 32.5989 15.3922 32.584 15.3831C32.5692 15.3741 32.557 15.3225 32.557 15.2686C32.557 15.2146 32.5452 15.1632 32.5307 15.1544C32.5163 15.1457 32.4964 15.0927 32.4864 15.0367C32.4766 14.9807 32.4603 14.8891 32.4504 14.8333C32.4405 14.7774 32.4206 14.7317 32.4061 14.7317C32.3916 14.7317 32.3798 14.6933 32.3798 14.6464C32.3798 14.5994 32.3665 14.5529 32.3503 14.5431C32.3341 14.5332 32.3208 14.494 32.3208 14.456C32.3208 14.418 32.3075 14.3788 32.2912 14.3689C32.275 14.3591 32.2617 14.3255 32.2617 14.2943C32.2617 14.2631 32.2484 14.2117 32.2322 14.1799C32.2159 14.1482 32.1894 14.0963 32.1731 14.0646C32.1569 14.0329 32.1436 13.9806 32.1436 13.9485C32.1436 13.9164 32.1303 13.8901 32.1141 13.8901C32.0978 13.8901 32.0845 13.8509 32.0845 13.803C32.0845 13.7552 32.0712 13.716 32.055 13.716C32.0387 13.716 32.0255 13.6907 32.0255 13.6597C32.0255 13.6287 32.0122 13.5953 31.9959 13.5854C31.9797 13.5755 31.9664 13.5355 31.9664 13.4966C31.9664 13.4576 31.9531 13.4258 31.9369 13.4258C31.9206 13.4258 31.9073 13.3997 31.9073 13.3677C31.9073 13.3358 31.894 13.3097 31.8778 13.3097C31.8616 13.3097 31.8483 13.2771 31.8483 13.2371C31.8483 13.1972 31.835 13.1646 31.8187 13.1646C31.8025 13.1646 31.7892 13.1385 31.7892 13.1066C31.7892 13.0746 31.7759 13.0485 31.7597 13.0485C31.7434 13.0485 31.7301 13.0224 31.7301 12.9905C31.7301 12.9586 31.7169 12.9324 31.7006 12.9324C31.6844 12.9324 31.6711 12.9071 31.6711 12.8761C31.6711 12.8452 31.6578 12.8117 31.6415 12.8018C31.6253 12.792 31.612 12.752 31.612 12.713C31.612 12.6741 31.5987 12.6422 31.5825 12.6422C31.5662 12.6422 31.553 12.6172 31.553 12.5866C31.553 12.556 31.543 12.5267 31.5308 12.5213C31.5186 12.516 31.4293 12.3549 31.3322 12.1634C31.2352 11.9719 31.1487 11.8086 31.1402 11.8006C31.1317 11.7927 31.1058 11.7502 31.0828 11.7063C31.0598 11.6624 31.0299 11.6265 31.0164 11.6265C31.0029 11.6265 30.9919 11.6004 30.9919 11.5685C30.9919 11.5366 30.9786 11.5104 30.9623 11.5104C30.9461 11.5104 30.9328 11.4872 30.9328 11.4588C30.9328 11.4304 30.9062 11.3883 30.8737 11.3653C30.8412 11.3423 30.8147 11.3063 30.8147 11.2852C30.8147 11.2641 30.7881 11.2188 30.7556 11.1845C30.7231 11.1503 30.6965 11.1051 30.6965 11.0842C30.6965 11.0632 30.6832 11.0461 30.667 11.0461C30.6508 11.0461 30.6375 11.0265 30.6375 11.0026C30.6375 10.9786 30.6242 10.9591 30.6079 10.9591C30.5917 10.9591 30.5784 10.9395 30.5784 10.9155C30.5784 10.8916 30.5651 10.872 30.5489 10.872C30.5326 10.872 30.5193 10.857 30.5193 10.8388C30.5193 10.8206 30.4795 10.7683 30.4308 10.7225C30.382 10.6768 30.3422 10.6227 30.3422 10.6025C30.3422 10.5822 30.3156 10.5467 30.2831 10.5237C30.2506 10.5008 30.2238 10.4619 30.2236 10.4376C30.2233 10.4131 30.1834 10.349 30.135 10.2949C30.0865 10.2409 30.0468 10.1858 30.0468 10.1725C30.0468 10.1593 30.0003 10.1027 29.9435 10.0469C29.8866 9.99101 29.8401 9.93333 29.8401 9.91882C29.8401 9.90424 29.787 9.83851 29.722 9.7727C29.657 9.7069 29.6039 9.64001 29.6039 9.62412C29.6039 9.58204 29.4865 9.58842 29.4698 9.63137ZM5.6266 12.2669C5.59286 12.3357 5.56517 12.4091 5.56517 12.43C5.56517 12.451 5.55188 12.4681 5.53564 12.4681C5.5194 12.4681 5.50611 12.4942 5.50611 12.5262C5.50611 12.5581 5.49282 12.5842 5.47658 12.5842C5.46034 12.5842 5.44705 12.6103 5.44705 12.6422C5.44705 12.6742 5.43376 12.7003 5.41752 12.7003C5.40127 12.7003 5.38798 12.7264 5.38798 12.7583C5.38798 12.7902 5.37469 12.8164 5.35845 12.8164C5.34221 12.8164 5.32892 12.8361 5.32892 12.8602C5.32892 12.8844 5.31718 12.9268 5.30279 12.9546C5.16827 13.2138 5.09267 13.3849 5.09267 13.4298C5.09267 13.4595 5.07938 13.4838 5.06314 13.4838C5.04689 13.4838 5.0336 13.5099 5.0336 13.5419C5.0336 13.5738 5.02032 13.5999 5.00407 13.5999C4.98783 13.5999 4.97454 13.6391 4.97454 13.687C4.97454 13.7348 4.96369 13.774 4.95033 13.774C4.93704 13.774 4.9081 13.8393 4.88595 13.9191C4.8638 13.9989 4.83486 14.0642 4.82157 14.0642C4.80821 14.0642 4.79735 14.1034 4.79735 14.1513C4.79735 14.1992 4.78406 14.2383 4.76782 14.2383C4.75158 14.2383 4.73829 14.2702 4.73829 14.3092C4.73829 14.3481 4.725 14.3881 4.70876 14.398C4.69252 14.4078 4.67923 14.447 4.67923 14.485C4.67923 14.523 4.66594 14.5622 4.64969 14.5721C4.63345 14.5819 4.62016 14.6277 4.62016 14.6737C4.62016 14.7197 4.60687 14.7654 4.59063 14.7752C4.57439 14.7851 4.5611 14.8308 4.5611 14.8768C4.5611 14.9228 4.54781 14.9685 4.53157 14.9784C4.51533 14.9882 4.50204 15.0413 4.50204 15.0962C4.50204 15.1511 4.49022 15.196 4.47575 15.196C4.44711 15.196 4.43249 15.2607 4.37904 15.6241C4.35962 15.7557 4.33289 15.8635 4.31953 15.8635C4.30624 15.8635 4.29532 15.9288 4.29532 16.0086C4.29532 16.0884 4.28203 16.1537 4.26578 16.1537C4.24939 16.1537 4.23625 16.2311 4.23625 16.3278C4.23625 16.4245 4.22311 16.5019 4.20672 16.5019C4.19033 16.5019 4.17719 16.5793 4.17719 16.6761C4.17719 16.7728 4.16405 16.8502 4.14766 16.8502C4.13046 16.8502 4.11813 16.9469 4.11813 17.0823C4.11813 17.2178 4.1058 17.3145 4.08859 17.3145C4.07051 17.3145 4.05906 17.4547 4.05906 17.6773C4.05906 17.8998 4.04762 18.04 4.02953 18.04C4.01056 18.04 4 18.3206 4 18.8236C4 19.3266 4.01056 19.6071 4.02953 19.6071C4.04762 19.6071 4.05906 19.7473 4.05906 19.9699C4.05906 20.1924 4.07051 20.3326 4.08859 20.3326C4.1058 20.3326 4.11813 20.4287 4.11813 20.563C4.11813 20.6898 4.13142 20.8016 4.14766 20.8115C4.1639 20.8213 4.17719 20.9135 4.17719 21.0163C4.17719 21.1216 4.19011 21.2032 4.20672 21.2032C4.22296 21.2032 4.23625 21.275 4.23625 21.3628C4.23625 21.4506 4.24954 21.5224 4.26578 21.5224C4.28203 21.5224 4.29532 21.5877 4.29532 21.6675C4.29532 21.7474 4.30705 21.8127 4.32138 21.8127C4.3357 21.8127 4.35674 21.9105 4.36818 22.0301C4.37955 22.1497 4.40111 22.2549 4.41595 22.264C4.43079 22.273 4.44297 22.3246 4.44297 22.3785C4.44297 22.4325 4.45626 22.4848 4.47251 22.4946C4.48875 22.5045 4.50204 22.5575 4.50204 22.6124C4.50204 22.6674 4.51533 22.7123 4.53157 22.7123C4.54781 22.7123 4.5611 22.7507 4.5611 22.7976C4.5611 22.8445 4.57439 22.891 4.59063 22.9009C4.60687 22.9108 4.62016 22.9565 4.62016 23.0025C4.62016 23.0485 4.63345 23.0942 4.64969 23.1041C4.66594 23.1139 4.67923 23.1604 4.67923 23.2074C4.67923 23.2543 4.69252 23.2927 4.70876 23.2927C4.725 23.2927 4.73829 23.3245 4.73829 23.3635C4.73829 23.4025 4.75158 23.4424 4.76782 23.4523C4.78406 23.4622 4.79735 23.5013 4.79735 23.5394C4.79735 23.5774 4.81064 23.6166 4.82688 23.6264C4.84313 23.6363 4.85642 23.6697 4.85642 23.7007C4.85642 23.7317 4.8697 23.757 4.88595 23.757C4.90219 23.757 4.91548 23.7889 4.91548 23.8278C4.91548 23.8668 4.92877 23.9068 4.94501 23.9166C4.96125 23.9265 4.97454 23.9665 4.97454 24.0054C4.97454 24.0444 4.98783 24.0762 5.00407 24.0762C5.02032 24.0762 5.0336 24.1024 5.0336 24.1343C5.0336 24.1662 5.04689 24.1923 5.06314 24.1923C5.07938 24.1923 5.09267 24.2315 5.09267 24.2794C5.09267 24.3273 5.10596 24.3664 5.1222 24.3664C5.13844 24.3664 5.15173 24.3926 5.15173 24.4245C5.15173 24.4564 5.16502 24.4825 5.18126 24.4825C5.19751 24.4825 5.21079 24.5086 5.21079 24.5406C5.21079 24.5725 5.22408 24.5986 5.24033 24.5986C5.25657 24.5986 5.26986 24.6183 5.26986 24.6425C5.26986 24.6667 5.28174 24.7091 5.29629 24.7368C5.31083 24.7645 5.36724 24.8786 5.42165 24.9904C5.47606 25.1021 5.53062 25.1979 5.54288 25.2032C5.55513 25.2085 5.56517 25.231 5.56517 25.2532C5.56517 25.3074 5.6895 25.5563 5.7166 25.5563C5.7716 25.5563 5.77691 24.8363 5.76739 18.7278C5.75654 11.8423 5.75993 11.9959 5.6266 12.2669Z" fill="#10489D"/>
<path fill-rule="evenodd" clip-rule="evenodd" d="M7.5438 10.9156V13.1647H14.72H21.8961V10.9156V8.6665H14.72H7.5438V10.9156ZM22.8411 10.9156V13.1647H24.8626C27.4047 13.1647 27.4494 13.1728 27.7434 13.6882L27.8172 13.8176L27.832 21.745C27.8401 26.105 27.8555 29.6811 27.8663 29.6916C27.8771 29.7022 27.968 29.6314 28.0682 29.5344C28.1685 29.4374 28.2631 29.358 28.2784 29.358C28.3145 29.358 29.2495 28.429 29.2495 28.3931C29.2495 28.3779 29.2894 28.329 29.3381 28.2842C29.3868 28.2395 29.4267 28.182 29.4267 28.1565C29.4267 28.131 29.4367 28.1101 29.4488 28.1101C29.4851 28.1101 29.4645 9.09833 29.4282 9.06263C29.4111 9.04587 29.3972 9.01968 29.3972 9.00445C29.3972 8.95351 29.2438 8.7783 29.1501 8.72215C29.0605 8.66854 28.9573 8.66672 25.9493 8.66658L22.8411 8.6665V10.9156Z" fill="#E8EBEC"/>
<path fill-rule="evenodd" clip-rule="evenodd" d="M7.54379 7.7402V8.62285H14.7273H21.9109L21.9027 7.7595L21.8944 6.89614H17.1334C14.5147 6.89614 11.2858 6.88744 9.958 6.87684L7.54379 6.85754V7.7402ZM24.5687 6.89578L22.8264 6.91065L22.8185 7.76675L22.8107 8.62285H25.9194C29.5311 8.62285 29.1371 8.58338 29.4572 8.97712C29.4729 8.99641 29.4857 9.04459 29.4857 9.08427C29.4857 9.12389 29.499 9.16437 29.5153 9.17424C29.5347 9.18599 29.5448 8.93329 29.5448 8.43763C29.5448 7.9659 29.5337 7.67642 29.5153 7.66518C29.499 7.65531 29.4857 7.59575 29.4857 7.53285C29.4857 7.46995 29.4725 7.41851 29.4562 7.41851C29.44 7.41851 29.4267 7.39768 29.4267 7.37222C29.4267 7.31759 29.3219 7.16385 29.2361 7.09254C29.2029 7.06489 29.1596 7.02898 29.14 7.01273C29.1204 6.99648 29.0838 6.9832 29.0588 6.9832C29.0338 6.9832 29.0132 6.97341 29.013 6.96144C29.0119 6.85943 28.9473 6.85849 24.5687 6.89578ZM7.53478 13.5048C7.50488 14.0232 7.30577 14.2893 6.85652 14.4111C6.4399 14.5241 5.84934 14.1896 5.79419 13.8094C5.79021 13.7819 5.78024 16.4039 5.77204 19.6361C5.76385 22.8682 5.74591 25.5388 5.73218 25.5707C5.71165 25.6185 5.71342 25.6211 5.74214 25.5852C5.77116 25.5489 5.77455 25.5527 5.7623 25.6075C5.75425 25.6437 5.76304 25.6899 5.78194 25.7102C5.83746 25.7699 5.89002 25.8713 5.89002 25.9186C5.89002 25.9428 5.90331 25.9625 5.91955 25.9625C5.9358 25.9625 5.94909 25.9796 5.94909 26.0006C5.94909 26.0215 5.97234 26.0639 6.00077 26.0949C6.02919 26.1258 6.07231 26.1903 6.09652 26.2382C6.12081 26.2861 6.164 26.3464 6.1925 26.3722C6.22107 26.398 6.2444 26.4375 6.2444 26.4601C6.2444 26.4826 6.27098 26.5199 6.30346 26.5429C6.33595 26.5659 6.36253 26.6051 6.36253 26.63C6.36253 26.6548 6.38911 26.694 6.42159 26.717C6.45408 26.74 6.48065 26.7792 6.48065 26.8041C6.48065 26.829 6.50723 26.8681 6.53972 26.8911C6.5722 26.9141 6.59878 26.9533 6.59878 26.9782C6.59878 27.0031 6.62536 27.0423 6.65784 27.0653C6.69033 27.0883 6.71691 27.1238 6.71691 27.1442C6.71691 27.1647 6.7302 27.1813 6.74644 27.1813C6.76268 27.1813 6.77597 27.2009 6.77597 27.2249C6.77597 27.2488 6.78837 27.2684 6.80351 27.2684C6.81864 27.2684 6.83843 27.2913 6.84751 27.3192C6.85652 27.3471 6.91034 27.4222 6.96704 27.4861C7.02374 27.5499 7.0704 27.6108 7.07069 27.6215C7.07106 27.6322 7.12444 27.6953 7.18941 27.7617C7.25438 27.8282 7.30754 27.8938 7.30754 27.9076C7.30754 27.9214 7.38395 28.011 7.47734 28.1069C7.67144 28.3062 7.86864 28.5206 7.86864 28.5324C7.86864 28.5561 8.67108 29.3288 8.69574 29.3288C8.71184 29.3288 8.72505 29.3484 8.72505 29.3724C8.72505 29.3963 8.74521 29.4159 8.76987 29.4159C8.79453 29.4159 8.90113 29.5008 9.00671 29.6045C9.11229 29.7083 9.20893 29.7932 9.22155 29.7932C9.23418 29.7932 9.30151 29.8454 9.37113 29.9093C9.44082 29.9731 9.51133 30.0253 9.52779 30.0253C9.54426 30.0253 9.59498 30.0645 9.64053 30.1124C9.68608 30.1603 9.73459 30.1995 9.74832 30.1995C9.76213 30.1995 9.81993 30.2387 9.87678 30.2865C9.93363 30.3343 9.9938 30.3735 10.0106 30.3735C10.0272 30.3736 10.0601 30.3997 10.0835 30.4316C10.1069 30.4635 10.1398 30.4897 10.1564 30.4897C10.1732 30.4897 10.2255 30.5224 10.2727 30.5622C10.3198 30.6021 10.3676 30.6348 10.3788 30.6348C10.39 30.6348 10.4365 30.6662 10.482 30.7048C10.5277 30.7433 10.5995 30.7923 10.6417 30.8136C10.6839 30.8349 10.7442 30.8753 10.7757 30.9032C10.8072 30.9311 10.8446 30.954 10.8589 30.954C10.8733 30.954 10.9446 30.9942 11.0174 31.0435C11.0903 31.0928 11.1691 31.1259 11.1926 31.117C11.2296 31.103 11.2352 30.2735 11.2352 24.8475C11.2352 20.4107 11.2447 18.5495 11.2677 18.4404C11.2998 18.2889 11.3149 18.2722 12.2792 17.324L13.2581 16.3615L13.4501 16.3432C13.5557 16.3332 15.499 16.3288 17.7686 16.3336L21.8952 16.3423L21.903 14.7752L21.9109 13.2081H14.7314H7.55184L7.53478 13.5048ZM22.8116 16.6944V20.1808L22.8781 20.2255C23.402 20.5777 23.402 21.4695 22.8781 21.6697L22.8116 21.695V22.7267V23.7584L22.983 23.9245C23.4429 24.3706 23.356 25.0973 22.814 25.3375C22.6674 25.4025 22.6662 25.423 22.8001 25.5707C22.9933 25.7839 23.2159 26.0338 23.3169 26.1511C23.3719 26.215 23.4239 26.2737 23.4324 26.2817C23.4409 26.2897 23.514 26.3746 23.5949 26.4703C23.6757 26.5661 23.7489 26.651 23.7574 26.659C23.7659 26.667 23.8457 26.7584 23.9345 26.862C24.0235 26.9658 24.1195 27.0718 24.1479 27.0976C24.1763 27.1234 24.1996 27.157 24.1996 27.172C24.1996 27.1871 24.2228 27.2253 24.2513 27.2569C24.3168 27.3299 24.4051 27.4709 24.4263 27.5368C24.4353 27.5648 24.455 27.5876 24.4699 27.5876C24.5016 27.5876 24.4683 27.5221 24.3131 27.2798L24.1996 27.1026V22.8975V18.6924L23.5204 18.0254L22.8411 17.3585V16.8496V16.3407L22.9666 16.3518C23.0952 16.3633 24.9248 18.0856 25.0435 18.3069C25.0795 18.374 25.0855 19.3179 25.0855 24.8704C25.0855 28.4372 25.0936 31.3762 25.1035 31.4014C25.1229 31.4511 25.2627 31.466 25.2627 31.4183C25.2627 31.4023 25.2893 31.3893 25.3218 31.3893C25.3543 31.3893 25.3809 31.3762 25.3809 31.3603C25.3809 31.3443 25.4074 31.3312 25.4399 31.3312C25.4724 31.3312 25.499 31.3182 25.499 31.3022C25.499 31.2863 25.5256 31.2732 25.558 31.2732C25.5905 31.2732 25.6171 31.2616 25.6171 31.2473C25.6171 31.2331 25.6535 31.2125 25.698 31.2015C25.7425 31.1905 25.7857 31.1728 25.794 31.1621C25.817 31.1323 25.918 31.0719 26.0084 31.0336C26.0531 31.0148 26.0896 30.9907 26.0896 30.9802C26.0896 30.9697 26.1295 30.9448 26.1782 30.925C26.2269 30.9052 26.2668 30.8774 26.2668 30.8634C26.2668 30.8494 26.2867 30.8379 26.3111 30.8379C26.3355 30.8379 26.3554 30.8248 26.3554 30.8089C26.3554 30.7929 26.3728 30.7799 26.3942 30.7799C26.4154 30.7799 26.4614 30.7537 26.4963 30.7218C26.5311 30.6899 26.5735 30.6638 26.5904 30.6638C26.6073 30.6638 26.6212 30.6507 26.6212 30.6348C26.6212 30.6188 26.6382 30.6057 26.659 30.6057C26.6797 30.6057 26.7154 30.5803 26.7382 30.5492C26.7609 30.5182 26.7902 30.4992 26.8031 30.5071C26.816 30.5149 26.898 30.4489 26.9852 30.3604C27.0725 30.2719 27.1592 30.1995 27.1779 30.1995C27.1965 30.1995 27.2118 30.1864 27.2118 30.1704C27.2118 30.1545 27.2288 30.1414 27.2496 30.1414C27.2704 30.1414 27.3062 30.1158 27.3291 30.0845C27.3522 30.0531 27.4115 30.0189 27.4612 30.0083C27.5108 29.9978 27.6076 29.9386 27.6763 29.8767C27.7449 29.8148 27.8147 29.7641 27.8313 29.7641C27.8479 29.7641 27.8615 29.7503 27.8615 29.7334C27.8615 29.7165 27.8484 29.7106 27.8324 29.7203C27.8134 29.7319 27.8007 26.9947 27.7955 21.7923L27.7877 13.8465L27.7138 13.7161C27.607 13.5276 27.4966 13.4163 27.3216 13.321L27.1675 13.2371L24.9896 13.2226L22.8116 13.2081V16.6944ZM17.7608 17.2201L13.6403 17.2276L12.8955 17.9615L12.1507 18.6955V25.1416C12.1507 31.7861 12.1492 31.6795 12.2425 31.6795C12.2732 31.6795 12.2984 31.6925 12.2984 31.7085C12.2984 31.7245 12.325 31.7375 12.3574 31.7375C12.3899 31.7375 12.4165 31.7506 12.4165 31.7665C12.4165 31.7825 12.4431 31.7956 12.4756 31.7956C12.508 31.7956 12.5346 31.8086 12.5346 31.8246C12.5346 31.8406 12.5542 31.8536 12.578 31.8536C12.6019 31.8536 12.6688 31.8797 12.7266 31.9117C12.7844 31.9436 12.8579 31.9697 12.8899 31.9697C12.9219 31.9697 12.9481 31.9828 12.9481 31.9987C12.9481 32.0147 12.9738 32.0277 13.0054 32.0277C13.0369 32.0277 13.0709 32.0408 13.081 32.0568C13.091 32.0727 13.125 32.0858 13.1566 32.0858C13.1881 32.0858 13.2138 32.0988 13.2138 32.1148C13.2138 32.1308 13.2406 32.1438 13.2733 32.1438C13.306 32.1438 13.3625 32.1589 13.3988 32.1773C13.5406 32.2494 13.5694 32.2599 13.6252 32.2599C13.6569 32.2599 13.6911 32.273 13.7011 32.2889C13.7112 32.3049 13.7492 32.3179 13.7856 32.3179C13.822 32.3179 13.8644 32.3293 13.8798 32.3431C13.911 32.3711 14.0998 32.4114 14.0998 32.39C14.0998 32.3825 14.0699 32.343 14.0334 32.302C13.9968 32.2611 13.9402 32.173 13.9075 32.1062C13.8666 32.0224 13.8116 31.9664 13.7304 31.9259C13.4742 31.7981 13.0957 31.4763 13.0957 31.3864C13.0957 31.3164 13.518 30.943 13.6813 30.8686C13.819 30.8058 13.8487 30.7754 13.9406 30.6034C14.0974 30.3104 14.4003 30.0317 14.5033 30.0859C14.6186 30.1466 14.8342 30.3948 14.9544 30.6052C15.0469 30.7672 15.0858 30.8055 15.2339 30.8809C15.4396 30.9857 15.7831 31.2991 15.7831 31.382C15.7831 31.4629 15.4224 31.7904 15.2168 31.8961C15.0827 31.9651 15.0338 32.0111 14.9699 32.1283C14.8668 32.3176 14.698 32.5211 14.6441 32.5211C14.6209 32.5211 14.6018 32.5341 14.6018 32.5501C14.6018 32.5661 14.655 32.5791 14.72 32.5791C14.7849 32.5791 14.8381 32.5922 14.8381 32.6081C14.8381 32.6241 14.8912 32.6372 14.9562 32.6372C15.0212 32.6372 15.0743 32.6502 15.0743 32.6662C15.0743 32.6821 15.1275 32.6952 15.1925 32.6952C15.2574 32.6952 15.3106 32.7083 15.3106 32.7242C15.3106 32.7402 15.3704 32.7532 15.4435 32.7532C15.5166 32.7532 15.5764 32.7663 15.5764 32.7823C15.5764 32.7982 15.642 32.8113 15.7223 32.8113C15.8025 32.8113 15.8764 32.8243 15.8865 32.8403C15.8965 32.8563 15.977 32.8693 16.0654 32.8693C16.1538 32.8693 16.2261 32.8824 16.2261 32.8983C16.2261 32.9149 16.3139 32.9274 16.4304 32.9274C16.5675 32.9274 16.6386 32.9393 16.6469 32.9636C16.6566 32.9921 17.0494 32.9999 18.4788 32.9999C19.8951 32.9999 20.3067 32.9919 20.3354 32.9636C20.3577 32.9417 20.4518 32.9274 20.5731 32.9274C20.6873 32.9274 20.7739 32.9148 20.7739 32.8983C20.7739 32.8822 20.8527 32.8693 20.9511 32.8693C21.0495 32.8693 21.1283 32.8564 21.1283 32.8403C21.1283 32.8243 21.1948 32.8113 21.276 32.8113C21.3572 32.8113 21.4236 32.7982 21.4236 32.7823C21.4236 32.7663 21.4834 32.7532 21.5565 32.7532C21.6296 32.7532 21.6894 32.7402 21.6894 32.7242C21.6894 32.7083 21.7093 32.6952 21.7337 32.6952C21.7952 32.6952 21.7975 32.6986 21.6082 32.5044C21.5148 32.4085 21.3948 32.2498 21.3416 32.1516C21.2571 31.9957 21.2236 31.963 21.0758 31.8923C20.8887 31.8027 20.5081 31.4616 20.5081 31.3835C20.5081 31.3019 20.8467 30.9984 21.0615 30.8875C21.2125 30.8095 21.2698 30.7622 21.296 30.694L21.3306 30.6038L21.6946 30.6174L22.0586 30.631L21.6008 30.592C20.7702 30.5211 20.3722 30.4208 20.2889 30.2611C20.1797 30.0518 20.0847 29.6993 20.0351 29.3192C20.0146 29.1623 19.9897 29.046 19.9798 29.0608C19.9699 29.0756 19.9228 29.0972 19.875 29.1087C19.7381 29.1417 19.6524 29.2142 19.0224 29.8305C18.1063 30.7266 18.1375 30.727 17.1934 29.8019C16.4087 29.0331 16.5633 29.0968 15.4814 29.0965C14.5575 29.0963 14.4525 29.0839 14.3155 28.9584C14.1372 28.7951 14.1453 28.8448 14.1293 27.8081C14.1117 26.6599 14.2054 26.876 13.3597 26.035C12.4523 25.1327 12.4512 25.1966 13.3904 24.2648C14.199 23.4627 14.1115 23.6671 14.1293 22.5381C14.1449 21.5433 14.1483 21.5189 14.289 21.3957C14.4627 21.2436 14.4337 21.2476 15.4568 21.2322C16.607 21.2148 16.398 21.301 17.2154 20.5065C18.1682 19.5803 18.0976 19.5734 19.2226 20.7051C19.7843 21.2701 19.6788 21.2321 20.6879 21.2324L21.527 21.2327L21.6426 21.4091C21.7062 21.506 21.7892 21.6054 21.8272 21.6298L21.8961 21.6742V22.7565V23.8389L21.8145 23.9067C21.7297 23.9773 21.6008 24.1417 21.6008 24.1793C21.6008 24.1912 21.6389 24.15 21.6854 24.0878C21.7319 24.0255 21.805 23.943 21.8478 23.9042L21.9257 23.8339V22.7518V21.6698L21.8075 21.5624C21.7426 21.5034 21.6894 21.4375 21.6894 21.4162C21.6894 21.3948 21.6794 21.3773 21.6671 21.3773C21.6065 21.3773 21.557 21.1739 21.5577 20.9274C21.5584 20.6425 21.6105 20.5281 21.8341 20.3198C21.8845 20.273 21.9257 20.2232 21.9257 20.2092C21.9257 20.1952 21.8758 20.2302 21.8149 20.2869C21.6509 20.4398 21.5497 20.3756 21.3373 19.9841C21.2568 19.8357 21.2193 19.7994 21.0608 19.717C20.8603 19.6127 20.5081 19.3011 20.5081 19.228C20.5081 19.1183 21.0661 18.6497 21.1973 18.6493C21.2162 18.6492 21.2766 18.5638 21.3315 18.4595C21.4385 18.256 21.7689 17.8948 21.8481 17.8948C21.8898 17.8948 21.8961 17.849 21.8961 17.5466C21.8961 17.3551 21.8928 17.2015 21.8887 17.2055C21.8847 17.2095 20.0272 17.216 17.7608 17.2201ZM15.0155 18.0921C15.122 18.2006 15.2461 18.3635 15.2912 18.4541C15.3624 18.5971 15.3968 18.6312 15.552 18.7125C15.7409 18.8114 15.9796 19.0063 16.0777 19.1418L16.1364 19.2229L16.0402 19.3424C15.935 19.473 15.6721 19.6794 15.5321 19.7411C15.4198 19.7907 15.3401 19.8519 15.3401 19.8887C15.3401 19.9937 14.9274 20.4841 14.8077 20.5215C14.7523 20.5387 14.5135 20.3895 14.5131 20.3373C14.513 20.3267 14.4757 20.2789 14.4303 20.231C14.3848 20.1831 14.3386 20.1243 14.3277 20.1004C14.2422 19.9135 14.1549 19.8191 13.9668 19.7102C13.7784 19.6012 13.4206 19.2859 13.4206 19.2289C13.4206 19.1595 13.7749 18.8381 13.9645 18.7354C14.1489 18.6357 14.1841 18.6025 14.262 18.455C14.3567 18.2758 14.7083 17.8948 14.779 17.8948C14.8026 17.8948 14.909 17.9836 15.0155 18.0921ZM17.832 18.8093C18.1772 19.1446 18.1765 19.113 17.846 19.4487C17.4975 19.8027 17.5045 19.8026 17.1495 19.4553C16.8138 19.1268 16.8136 19.1463 17.1582 18.8094C17.5036 18.4715 17.4844 18.4715 17.832 18.8093ZM19.6142 18.8011C19.9653 19.1447 19.9652 19.1414 19.6296 19.4677C19.2792 19.8083 19.2999 19.8084 18.9448 19.4622C18.607 19.1327 18.6068 19.1426 18.9521 18.8034C19.29 18.4713 19.2772 18.4713 19.6142 18.8011ZM21.8193 18.6487C21.6998 18.6962 21.2771 19.1512 21.2765 19.2329C21.2759 19.3171 21.7664 19.8102 21.8508 19.8102C21.8901 19.8102 21.8961 19.7307 21.8961 19.2153C21.8961 18.8881 21.8928 18.6211 21.8887 18.6222C21.8847 18.6232 21.8534 18.6351 21.8193 18.6487ZM14.4447 18.9068C14.3038 19.0484 14.1884 19.1891 14.1884 19.2193C14.1884 19.3084 14.7292 19.8204 14.8 19.7984C14.8843 19.772 15.3697 19.2753 15.3697 19.2153C15.3697 19.1282 14.8699 18.6494 14.779 18.6494C14.72 18.6494 14.6391 18.7116 14.4447 18.9068ZM23.1049 19.0821C23.223 19.2286 23.2218 19.2349 23.0436 19.4201C22.8407 19.631 22.8411 19.6314 22.8411 19.2133V18.8486L22.9277 18.9091C22.9753 18.9424 23.055 19.0203 23.1049 19.0821ZM21.5609 24.2432C21.5533 24.2554 21.5392 24.3174 21.5296 24.3811C21.5099 24.5114 21.5242 24.4921 21.5671 24.3301C21.5944 24.2274 21.592 24.1938 21.5609 24.2432ZM21.5282 24.7436C21.5571 24.9794 21.8749 25.3782 22.0364 25.3814C22.1249 25.3831 22.0478 25.4969 21.6486 25.9545C21.4149 26.2223 21.2283 26.4463 21.2339 26.4522C21.2395 26.4582 21.2811 26.4193 21.3265 26.3657C21.3718 26.312 21.5722 26.0813 21.7717 25.8531C22.153 25.4168 22.1562 25.4097 22.0056 25.3393C21.7954 25.2411 21.6185 25.017 21.5522 24.7647L21.5123 24.613L21.5282 24.7436ZM23.5201 25.0331C23.5827 25.2611 23.5114 25.4295 23.2463 25.6795C23.0651 25.8505 23.0874 25.8535 22.8891 25.6316C22.6919 25.4108 22.6949 25.4264 22.8351 25.3561C22.8967 25.3252 23.0041 25.2392 23.0736 25.1652C23.1873 25.0438 23.2278 24.9753 23.2966 24.7872C23.3266 24.7053 23.4751 24.8688 23.5201 25.0331ZM21.1429 26.5261C21.1268 26.5488 21.0558 26.6337 20.9853 26.7147C20.9147 26.7958 20.8633 26.8621 20.8709 26.8621C20.8786 26.8621 20.9607 26.7772 21.0534 26.6735C21.146 26.5697 21.2108 26.4849 21.1971 26.4849C21.1835 26.4849 21.1591 26.5034 21.1429 26.5261ZM20.7001 27.0428C20.4387 27.373 20.1474 27.8812 20.1936 27.9266C20.2034 27.9363 20.2198 27.9195 20.2299 27.8892C20.3166 27.6314 20.5104 27.3078 20.7366 27.0435C20.8084 26.9597 20.8561 26.8917 20.8427 26.8924C20.8292 26.893 20.7651 26.9608 20.7001 27.0428ZM24.4973 27.6457C24.4974 27.696 24.6099 27.9079 24.6118 27.8612C24.6124 27.8442 24.587 27.7789 24.5552 27.7161C24.5233 27.6534 24.4973 27.6217 24.4973 27.6457ZM24.613 27.9349C24.613 27.9502 24.6316 28.0188 24.6542 28.0872C24.8082 28.5514 24.8241 29.2638 24.6918 29.761C24.6477 29.9268 24.6178 30.0688 24.6256 30.0764C24.6333 30.084 24.648 30.0528 24.6582 30.007C24.6683 29.9612 24.688 29.8976 24.7019 29.8657C24.738 29.7826 24.7865 29.4765 24.8258 29.0822C24.8378 28.9626 24.7918 28.4344 24.7602 28.3276C24.746 28.2798 24.7125 28.1655 24.6858 28.0737C24.6407 27.9195 24.613 27.8665 24.613 27.9349ZM20.1411 28.0395C20.1302 28.0821 20.128 28.1233 20.1361 28.1313C20.1442 28.1393 20.1597 28.1111 20.1707 28.0686C20.1815 28.026 20.1837 27.9847 20.1756 27.9767C20.1675 27.9687 20.152 27.997 20.1411 28.0395ZM20.0799 28.2551C20.0687 28.3052 20.0662 28.3528 20.0743 28.3608C20.0824 28.3688 20.0982 28.3342 20.1095 28.2841C20.1207 28.234 20.1232 28.1864 20.1151 28.1784C20.107 28.1704 20.0912 28.205 20.0799 28.2551ZM20.0204 28.6133C20.0089 28.733 20.0055 28.8482 20.0128 28.8695C20.02 28.8907 20.0352 28.7986 20.0466 28.6648C20.0579 28.531 20.0613 28.4158 20.0542 28.4087C20.0469 28.4016 20.0317 28.4937 20.0204 28.6133ZM27.633 29.886C27.581 29.937 27.5302 29.9706 27.5199 29.9605C27.4938 29.9349 27.6303 29.7971 27.6837 29.7949C27.7109 29.7938 27.6916 29.8284 27.633 29.886ZM24.5405 30.2153C24.515 30.2753 24.5002 30.3304 24.5075 30.3377C24.5149 30.3449 24.5419 30.3017 24.5674 30.2417C24.593 30.1816 24.6078 30.1265 24.6004 30.1193C24.593 30.112 24.5661 30.1553 24.5405 30.2153ZM24.111 30.4611C23.8234 30.5517 23.1065 30.6339 22.5884 30.6356C22.3945 30.6363 22.3381 30.6444 22.376 30.6661C22.4044 30.6823 22.4277 30.7139 22.4277 30.7362C22.4277 30.7585 22.5216 30.8252 22.6363 30.8844C22.8538 30.9968 23.1955 31.3032 23.1955 31.3859C23.1955 31.4595 22.809 31.8022 22.6241 31.8926C22.4781 31.9639 22.4439 31.9974 22.3704 32.1404C22.3237 32.2313 22.2244 32.3724 22.1499 32.454C21.9928 32.6256 21.9889 32.6372 22.0881 32.6372C22.1287 32.6372 22.1619 32.6241 22.1619 32.6081C22.1619 32.5922 22.2151 32.5791 22.28 32.5791C22.345 32.5791 22.3982 32.5661 22.3982 32.5501C22.3982 32.5341 22.4372 32.5211 22.485 32.5211C22.5328 32.5211 22.5801 32.508 22.5901 32.4921C22.6002 32.4761 22.6475 32.463 22.6953 32.463C22.743 32.463 22.7821 32.4515 22.7821 32.4374C22.7821 32.4232 22.8549 32.4027 22.9441 32.3918C23.0331 32.3808 23.1136 32.3598 23.1229 32.3449C23.1323 32.3301 23.1716 32.3179 23.2103 32.3179C23.249 32.3179 23.2888 32.3049 23.2989 32.2889C23.3089 32.273 23.3431 32.2599 23.3748 32.2599C23.4066 32.2599 23.4589 32.2468 23.4912 32.2309C23.5235 32.2149 23.5763 32.1888 23.6086 32.1728C23.6409 32.1569 23.694 32.1438 23.7267 32.1438C23.7594 32.1438 23.7862 32.1308 23.7862 32.1148C23.7862 32.0988 23.8119 32.0858 23.8434 32.0858C23.875 32.0858 23.909 32.0727 23.919 32.0568C23.9291 32.0408 23.9631 32.0277 23.9946 32.0277C24.0262 32.0277 24.0519 32.0147 24.0519 31.9987C24.0519 31.9828 24.0852 31.9697 24.1258 31.9697H24.1996V31.2306V30.4915L24.2808 30.4482C24.3871 30.3916 24.314 30.3971 24.111 30.4611ZM17.8249 30.9739C18.1782 31.315 18.1772 31.2933 17.8526 31.608C17.535 31.9157 17.5131 31.9295 17.4279 31.8741C17.3 31.7909 16.8758 31.3535 16.8758 31.3048C16.8758 31.248 17.4384 30.6928 17.4959 30.6928C17.5167 30.6928 17.6648 30.8193 17.8249 30.9739ZM19.6114 30.9594C19.9707 31.3055 19.9707 31.2989 19.6089 31.6476C19.2723 31.9719 19.2928 31.9727 18.9356 31.6234C18.6152 31.3102 18.6152 31.3082 18.9061 31.0197C19.3088 30.6204 19.2637 30.6242 19.6114 30.9594ZM14.1214 31.0634C13.7893 31.3912 13.7893 31.3891 14.1281 31.7151C14.4534 32.0281 14.4352 32.0285 14.7699 31.6996C15.1051 31.3701 15.1051 31.3984 14.7722 31.0743C14.4345 30.7457 14.443 30.7458 14.1214 31.0634ZM21.5338 31.0634C21.3448 31.2498 21.276 31.3376 21.276 31.3919C21.276 31.4787 21.7652 31.9697 21.8518 31.9697C21.9384 31.9697 22.4277 31.4787 22.4277 31.3919C22.4277 31.2983 21.9442 30.8089 21.8518 30.8089C21.8153 30.8089 21.6899 30.9092 21.5338 31.0634ZM14.2179 32.434C14.2179 32.45 14.2445 32.463 14.277 32.463C14.3095 32.463 14.3361 32.45 14.3361 32.434C14.3361 32.4181 14.3095 32.405 14.277 32.405C14.2445 32.405 14.2179 32.4181 14.2179 32.434ZM14.3951 32.4921C14.3951 32.508 14.4217 32.5211 14.4542 32.5211C14.4867 32.5211 14.5132 32.508 14.5132 32.4921C14.5132 32.4761 14.4867 32.463 14.4542 32.463C14.4217 32.463 14.3951 32.4761 14.3951 32.4921Z" fill="#FBB532"/>
<path fill-rule="evenodd" clip-rule="evenodd" d="M6.45111 5.70649C6.42675 5.72194 6.37027 5.73486 6.3256 5.73507C6.28094 5.73529 6.24439 5.74857 6.24439 5.76453C6.24439 5.78049 6.22586 5.79355 6.20327 5.79355C6.13505 5.79355 5.8641 6.05241 5.81331 6.1661C5.78724 6.22457 5.75358 6.2985 5.73859 6.33043C5.7067 6.39826 5.72641 11.8352 5.76295 13.0486C5.79212 14.0159 5.8387 14.1366 6.26167 14.34C6.89291 14.6434 7.49181 14.2506 7.53477 13.505L7.55183 13.2082H14.7314H21.9109V10.9156V8.62303H14.7231H7.53522L7.5508 7.47811C7.55929 6.84837 7.55611 6.31294 7.54371 6.28827C7.5313 6.26353 7.5051 6.20941 7.48553 6.16791C7.42499 6.03957 7.16327 5.79355 7.0873 5.79355C7.06227 5.79355 7.04174 5.78049 7.04174 5.76453C7.04174 5.74857 7.00188 5.73551 6.95315 5.73551C6.90442 5.73551 6.86456 5.72245 6.86456 5.70649C6.86456 5.66913 6.50988 5.66913 6.45111 5.70649ZM22.8255 8.644C22.8176 8.66438 22.8146 9.69968 22.8188 10.9447L22.8264 13.2082L24.9969 13.2228L27.1675 13.2373L27.3216 13.3212C27.4966 13.4165 27.607 13.5278 27.7138 13.7163L27.7877 13.8467L27.8024 21.7983C27.8106 26.1716 27.8238 29.7368 27.832 29.7208C27.8401 29.7048 27.8401 26.1201 27.832 21.7547L27.8172 13.8177L27.7434 13.6882C27.4494 13.1728 27.4046 13.1647 24.8626 13.1647H22.8411V10.9156V8.66656L25.9493 8.66663C28.9573 8.66678 29.0605 8.66859 29.1501 8.72221C29.2457 8.77952 29.3971 8.95393 29.3971 9.00675C29.3971 9.02322 29.4171 9.05297 29.4414 9.07285C29.4939 9.11558 29.5067 9.03809 29.4572 8.9773C29.1356 8.58189 29.5464 8.62426 25.9487 8.61498C23.4485 8.60852 22.8371 8.61425 22.8255 8.644ZM21.8961 10.9156V13.1647H14.72H7.54378V10.9156V8.66656H14.72H21.8961V10.9156ZM29.4857 9.37582C29.4857 9.50271 29.4982 9.59521 29.5153 9.59521C29.5321 9.59521 29.5448 9.50873 29.5448 9.39381C29.5448 9.28303 29.5315 9.18428 29.5153 9.17442C29.4966 9.1631 29.4857 9.23703 29.4857 9.37582ZM13.3615 16.3489C13.1766 16.3701 11.3117 18.2323 11.2679 18.4397C11.2339 18.6006 11.2177 31.1349 11.2513 31.1884C11.2606 31.2032 11.2941 31.2153 11.3256 31.2153C11.3571 31.2153 11.3829 31.2284 11.3829 31.2444C11.3829 31.2603 11.4095 31.2734 11.4419 31.2734C11.4744 31.2734 11.501 31.2844 11.501 31.2978C11.501 31.3113 11.5641 31.3538 11.6413 31.3922C11.7184 31.4306 11.786 31.4718 11.7914 31.4838C11.7968 31.4958 11.8267 31.5055 11.8578 31.5055C11.889 31.5055 11.9145 31.5153 11.9147 31.5273C11.915 31.5534 12.058 31.6216 12.1123 31.6216C12.1437 31.6216 12.1507 30.4439 12.1507 25.1587V18.6957L12.8955 17.9617L13.6403 17.2278L17.7608 17.2204L21.8814 17.213V16.7777V16.3424L17.6731 16.3397C15.3586 16.3383 13.4183 16.3424 13.3615 16.3489ZM22.8411 16.8498V17.3587L23.5204 18.0256L24.1996 18.6926V22.8968V27.1011L24.3301 27.3082C24.7633 27.9956 24.949 28.9913 24.7587 29.6067C24.7436 29.6558 24.7312 29.7301 24.7312 29.7719C24.7312 29.8137 24.7179 29.856 24.7016 29.8659C24.6854 29.8758 24.6721 29.907 24.6721 29.9353C24.6721 30.1111 24.5306 30.33 24.3649 30.4107L24.1996 30.4911V31.2305C24.1996 31.8684 24.2056 31.9699 24.2439 31.9699C24.2682 31.9699 24.2882 31.9568 24.2882 31.9409C24.2882 31.9249 24.3148 31.9118 24.3472 31.9118C24.3797 31.9118 24.4063 31.8988 24.4063 31.8828C24.4063 31.8669 24.4264 31.8538 24.451 31.8538C24.4756 31.8538 24.5187 31.8421 24.547 31.8278C24.5752 31.8135 24.6913 31.7581 24.805 31.7046C24.9187 31.6512 25.0161 31.5975 25.0215 31.5855C25.027 31.5735 25.0554 31.5636 25.0849 31.5636C25.1571 31.5636 25.1842 31.4823 25.1298 31.4288C25.0908 31.3904 25.0855 30.6189 25.0855 24.8854C25.0855 19.32 25.0795 18.3742 25.0435 18.3071C24.9248 18.0858 23.0952 16.3635 22.9666 16.352L22.8411 16.3409V16.8498ZM14.5433 18.0915C14.4372 18.1995 14.3106 18.3632 14.262 18.4552C14.1841 18.6027 14.1489 18.6358 13.9645 18.7356C13.7749 18.8383 13.4206 19.1597 13.4206 19.2291C13.4206 19.286 13.7784 19.6013 13.9668 19.7104C14.1549 19.8193 14.2422 19.9137 14.3277 20.1006C14.3386 20.1245 14.3848 20.1833 14.4302 20.2312C14.4757 20.279 14.513 20.3269 14.5131 20.3375C14.5135 20.3897 14.7523 20.5389 14.8077 20.5216C14.9274 20.4843 15.3401 19.9938 15.3401 19.8889C15.3401 19.8521 15.4198 19.7908 15.5321 19.7413C15.6721 19.6796 15.935 19.4732 16.0402 19.3426L16.1364 19.2231L16.0777 19.142C15.9795 19.0065 15.7409 18.8116 15.552 18.7127C15.3968 18.6313 15.3624 18.5972 15.2912 18.4543C15.2046 18.2804 14.8517 17.895 14.779 17.895C14.7555 17.895 14.6494 17.9835 14.5433 18.0915ZM21.6156 18.0826C21.5142 18.1857 21.3863 18.3554 21.3315 18.4597C21.2766 18.564 21.2162 18.6494 21.1973 18.6495C21.0661 18.6498 20.5081 19.1184 20.5081 19.2281C20.5081 19.3013 20.8603 19.6129 21.0607 19.7171C21.2193 19.7996 21.2568 19.8359 21.3373 19.9843C21.5424 20.3625 21.6506 20.437 21.8001 20.3033C21.9113 20.2039 21.9518 19.8104 21.8508 19.8104C21.7664 19.8104 21.2759 19.3173 21.2765 19.2331C21.2771 19.1476 21.7035 18.694 21.8264 18.648C21.8946 18.6226 21.8961 18.6139 21.8961 18.2585C21.8961 17.8178 21.8836 17.8099 21.6156 18.0826ZM17.1582 18.8096C16.8136 19.1465 16.8138 19.127 17.1495 19.4554C17.5045 19.8028 17.4975 19.8029 17.8459 19.4489C18.1765 19.1131 18.1772 19.1448 17.832 18.8095C17.4844 18.4717 17.5036 18.4717 17.1582 18.8096ZM18.952 18.8036C18.6068 19.1428 18.607 19.1329 18.9448 19.4623C19.2999 19.8086 19.2792 19.8085 19.6296 19.4678C19.9652 19.1416 19.9653 19.1449 19.6142 18.8013C19.2772 18.4715 19.29 18.4714 18.952 18.8036ZM15.1133 18.907C15.2543 19.0486 15.3696 19.1874 15.3696 19.2154C15.3696 19.2754 14.8843 19.7722 14.8 19.7985C14.7292 19.8206 14.1884 19.3086 14.1884 19.2195C14.1884 19.1295 14.6857 18.6495 14.779 18.6495C14.8381 18.6495 14.9189 18.7118 15.1133 18.907ZM22.8411 19.2135C22.8411 19.6316 22.8407 19.6312 23.0436 19.4203C23.2355 19.221 23.2095 19.1065 22.9277 18.9093L22.8411 18.8488V19.2135ZM17.9389 19.859C17.894 19.8683 17.6106 20.1217 17.2154 20.5062C16.3981 21.3013 16.6071 21.215 15.4568 21.2324C14.4337 21.2478 14.4627 21.2437 14.289 21.3959C14.1483 21.5191 14.1449 21.5435 14.1292 22.5383C14.1115 23.6673 14.199 23.4629 13.3904 24.265C12.4512 25.1967 12.4523 25.1328 13.3597 26.0352C14.2054 26.8762 14.1117 26.6601 14.1293 27.8083C14.1453 28.845 14.1372 28.7953 14.3155 28.9586C14.4525 29.0841 14.5575 29.0965 15.4814 29.0967C16.5633 29.0969 16.4087 29.0332 17.1934 29.8021C18.1413 30.7309 18.1 30.7309 19.0524 29.8018C19.6259 29.2423 19.8062 29.0969 19.9262 29.0969C19.9865 29.0969 20.006 29.0341 20.0063 28.8405C20.0071 28.3114 20.2398 27.6424 20.5747 27.207C20.7156 27.0236 21.1189 26.5492 21.1883 26.485C21.4979 26.1986 22.1246 25.3833 22.0364 25.3815C21.9539 25.3799 21.7274 25.1769 21.6303 25.0175C21.4279 24.685 21.4965 24.2044 21.7846 23.9361L21.8961 23.8322V22.7533V21.6743L21.8272 21.6299C21.7892 21.6056 21.7062 21.5062 21.6426 21.4092L21.527 21.2329L20.6853 21.2325C19.6679 21.2321 19.8302 21.3001 19.0759 20.5579C18.3319 19.826 18.2744 19.7906 17.9389 19.859ZM23.2966 24.7873C23.2278 24.9755 23.1873 25.044 23.0735 25.1653C23.0041 25.2394 22.8967 25.3254 22.8351 25.3563C22.6949 25.4266 22.6919 25.411 22.889 25.6318C23.0874 25.8537 23.0651 25.8507 23.2463 25.6797C23.5114 25.4296 23.5827 25.2613 23.5201 25.0333C23.4751 24.869 23.3266 24.7055 23.2966 24.7873ZM27.5706 29.8696C27.4667 29.9784 27.5237 29.9936 27.633 29.8861C27.6916 29.8286 27.7109 29.794 27.6837 29.7951C27.6597 29.7961 27.6088 29.8296 27.5706 29.8696ZM27.3299 30.0836C27.3065 30.1155 27.2704 30.1416 27.2496 30.1416C27.2288 30.1416 27.2118 30.1547 27.2118 30.1706C27.2118 30.2111 27.2682 30.2069 27.3099 30.1632C27.3878 30.0818 27.4243 30.0255 27.3991 30.0255C27.3845 30.0255 27.3533 30.0516 27.3299 30.0836ZM14.2142 30.2508C14.103 30.3619 13.98 30.5219 13.9291 30.6214C13.8506 30.775 13.8202 30.8054 13.6827 30.8681C13.518 30.9432 13.0957 31.3162 13.0957 31.3866C13.0957 31.4765 13.4742 31.7983 13.7303 31.9261C13.8105 31.966 13.8672 32.0232 13.9075 32.1045C14.0163 32.3238 14.1017 32.4046 14.2253 32.4049C14.2862 32.405 14.336 32.4182 14.336 32.4342C14.336 32.4502 14.3759 32.4632 14.4246 32.4632C14.4734 32.4632 14.5132 32.4763 14.5132 32.4922C14.5132 32.5082 14.5522 32.5213 14.5998 32.5213C14.6988 32.5213 14.8344 32.3773 14.9699 32.1285C15.0338 32.0113 15.0827 31.9653 15.2168 31.8963C15.4224 31.7906 15.7831 31.4631 15.7831 31.3822C15.7831 31.2991 15.4394 30.9858 15.2328 30.8805C15.0819 30.8037 15.0464 30.7683 14.9563 30.6048C14.85 30.4121 14.5202 30.0542 14.4495 30.0549C14.4277 30.0551 14.3219 30.1433 14.2142 30.2508ZM27.0673 30.2749C27.0307 30.3162 27.0075 30.3569 27.0159 30.365C27.0313 30.3801 27.1823 30.2445 27.1823 30.2154C27.1823 30.1777 27.1288 30.2053 27.0673 30.2749ZM21.2949 30.697C21.27 30.762 21.2099 30.8109 21.0615 30.8876C20.8467 30.9986 20.5081 31.302 20.5081 31.3837C20.5081 31.4618 20.8887 31.8029 21.0758 31.8925C21.2236 31.9632 21.2571 31.9958 21.3416 32.1518C21.4363 32.3264 21.764 32.6954 21.8244 32.6954C21.9501 32.6954 22.2346 32.4044 22.3743 32.1328C22.4435 31.9983 22.4803 31.9631 22.6242 31.8927C22.8089 31.8024 23.1955 31.4596 23.1955 31.3861C23.1955 31.3033 22.8538 30.997 22.6363 30.8846C22.5216 30.8254 22.4277 30.7585 22.4277 30.7359C22.4277 30.6611 22.3282 30.6428 21.8264 30.6262L21.3285 30.6097L21.2949 30.697ZM17.1669 30.9741C16.8155 31.3134 16.8168 31.2969 17.1194 31.5934C17.4139 31.8819 17.4761 31.9257 17.5409 31.89C17.6406 31.8351 18.1161 31.3507 18.1161 31.304C18.1161 31.2478 17.5528 30.693 17.4959 30.693C17.4751 30.693 17.3271 30.8195 17.1669 30.9741ZM19.2079 30.743C19.0492 30.8516 18.6772 31.2483 18.6772 31.3089C18.6772 31.3824 19.158 31.8655 19.2619 31.8965C19.3195 31.9136 19.3724 31.8757 19.6089 31.6477C19.9707 31.2991 19.9707 31.3057 19.6114 30.9595C19.3094 30.6685 19.3135 30.6707 19.2079 30.743ZM14.7721 31.0745C15.105 31.3985 15.1051 31.3703 14.7699 31.6998C14.4352 32.0287 14.4534 32.0283 14.1281 31.7153C13.7893 31.3892 13.7893 31.3914 14.1213 31.0636C14.443 30.746 14.4345 30.7459 14.7721 31.0745ZM22.1699 31.0636C22.3588 31.25 22.4277 31.3378 22.4277 31.3921C22.4277 31.4789 21.9384 31.9699 21.8518 31.9699C21.7652 31.9699 21.276 31.4789 21.276 31.3921C21.276 31.2985 21.7595 30.8091 21.8518 30.8091C21.8884 30.8091 22.0137 30.9094 22.1699 31.0636Z" fill="#FBDB93"/>
<path fill-rule="evenodd" clip-rule="evenodd" d="M20.3679 4.01371C20.3151 4.02097 20.2719 4.0391 20.2719 4.05405C20.2719 4.06899 20.2453 4.08126 20.2128 4.08126C20.1804 4.08126 20.1538 4.09432 20.1538 4.11028C20.1538 4.12624 20.1272 4.1393 20.0947 4.1393C20.0622 4.1393 20.0356 4.15236 20.0356 4.16832C20.0356 4.18428 20.0091 4.19734 19.9766 4.19734C19.9441 4.19734 19.9175 4.20822 19.9175 4.22142C19.9175 4.2347 19.8811 4.26408 19.8367 4.28672C19.7127 4.34991 19.5041 4.56604 19.5041 4.63134C19.5041 4.66333 19.4577 4.76077 19.4011 4.84783C19.1603 5.21776 19.1175 5.40937 19.0948 6.22158L19.0759 6.8963L19.5631 6.89579C19.8405 6.89557 20.0334 6.88476 20.011 6.87076C19.9348 6.82331 19.9764 5.57899 20.0597 5.413C20.4302 4.67501 21.4555 4.69358 21.8311 5.44514L21.9109 5.60482L21.9028 12.932L21.8947 20.2591L21.7967 20.3612C21.582 20.5847 21.5585 20.6404 21.5577 20.9264C21.557 21.1739 21.6064 21.3774 21.6671 21.3774C21.6794 21.3774 21.6894 21.3948 21.6894 21.4162C21.6894 21.4376 21.7426 21.5035 21.8075 21.5625L21.9257 21.6699V22.7513V23.8327L21.8198 23.9327C21.3742 24.3535 21.4687 25.0891 21.9999 25.3369C22.0552 25.3626 22.108 25.396 22.1174 25.4109C22.1322 25.4343 21.8183 25.8094 21.231 26.4704C20.8667 26.8804 20.6426 27.1485 20.5352 27.3025C20.4008 27.4953 20.2143 27.8778 20.1696 28.052C20.1595 28.0919 20.133 28.1899 20.1109 28.2697C19.945 28.8684 20.0236 29.7461 20.2892 30.2609C20.5112 30.6913 23.4624 30.7664 24.4112 30.3659C24.6841 30.2507 24.8855 28.9321 24.7227 28.3277C24.6257 27.9676 24.5913 27.8609 24.5438 27.7705C24.5169 27.7195 24.4949 27.6574 24.4949 27.6327C24.4949 27.608 24.4832 27.5877 24.4689 27.5877C24.4545 27.5877 24.4353 27.5649 24.4263 27.5369C24.4051 27.471 24.3168 27.3299 24.2513 27.257C24.2229 27.2254 24.1996 27.1872 24.1996 27.1721C24.1996 27.157 24.1763 27.1235 24.1479 27.0977C24.1195 27.0719 24.0235 26.9659 23.9346 26.8621C23.8457 26.7585 23.7659 26.667 23.7574 26.6591C23.7489 26.6511 23.6757 26.5662 23.5949 26.4704C23.514 26.3747 23.4409 26.2898 23.4324 26.2818C23.4239 26.2738 23.3719 26.215 23.3169 26.1512C23.2159 26.0339 22.9933 25.784 22.8001 25.5708C22.6662 25.4231 22.6674 25.4026 22.814 25.3375C23.356 25.0974 23.4429 24.3707 22.983 23.9246L22.8116 23.7585V22.7268V21.6951L22.8781 21.6697C23.4021 21.4696 23.402 20.5778 22.8779 20.2254L22.8113 20.1807L22.8118 13.0234C22.8121 7.84954 22.8029 5.80165 22.7787 5.63384C22.7603 5.50615 22.743 5.32986 22.7401 5.24207C22.731 4.9613 22.3611 4.43748 22.0655 4.28672C22.0211 4.26408 21.9847 4.2347 21.9847 4.22142C21.9847 4.20822 21.9582 4.19734 21.9257 4.19734C21.8932 4.19734 21.8666 4.18428 21.8666 4.16832C21.8666 4.15236 21.84 4.1393 21.8075 4.1393C21.7751 4.1393 21.7485 4.12624 21.7485 4.11028C21.7485 4.09432 21.723 4.08126 21.6919 4.08126C21.6608 4.08126 21.6298 4.06493 21.623 4.04498C21.6106 4.00842 20.5913 3.98302 20.3679 4.01371ZM5.75514 13.0195C5.75514 13.4106 5.75935 13.5705 5.76444 13.375C5.76954 13.1795 5.76954 12.8595 5.76444 12.664C5.75935 12.4685 5.75514 12.6285 5.75514 13.0195Z" fill="#DC522E"/>
</svg>
