<svg width="52" height="51" viewBox="0 0 52 51" fill="none" xmlns="http://www.w3.org/2000/svg">
<rect width="52" height="51" rx="25.5" fill="#D0D4E8"/>
<path fill-rule="evenodd" clip-rule="evenodd" d="M24.5377 5.89922C23.6873 5.966 23.5134 5.9861 23.4751 6.0217C23.4533 6.0419 23.337 6.05852 23.2167 6.05852C23.0963 6.05852 22.9862 6.07698 22.972 6.09955C22.9578 6.12211 22.8545 6.14058 22.7424 6.14058C22.6303 6.14058 22.5269 6.15904 22.5127 6.18161C22.4985 6.20417 22.4128 6.22263 22.3223 6.22263C22.2318 6.22263 22.1578 6.2411 22.1578 6.26366C22.1578 6.28623 22.0744 6.30469 21.9725 6.30469C21.8705 6.30469 21.7754 6.32315 21.7612 6.34572C21.747 6.36829 21.6719 6.38675 21.5942 6.38675C21.5165 6.38675 21.4414 6.40521 21.4272 6.42778C21.413 6.45034 21.3472 6.46881 21.2811 6.46881C21.2149 6.46881 21.1491 6.48727 21.1349 6.50983C21.1207 6.5324 21.0444 6.55086 20.9654 6.55086C20.8864 6.55086 20.8218 6.56933 20.8218 6.59189C20.8218 6.61446 20.7654 6.63292 20.6965 6.63292C20.6276 6.63292 20.5713 6.65138 20.5713 6.67395C20.5713 6.69652 20.5055 6.71498 20.4252 6.71498C20.3448 6.71498 20.279 6.73344 20.279 6.75601C20.279 6.77857 20.2227 6.79704 20.1538 6.79704C20.0849 6.79704 20.0285 6.8155 20.0285 6.83806C20.0285 6.86063 19.9721 6.87909 19.9033 6.87909C19.8344 6.87909 19.778 6.89756 19.778 6.92012C19.778 6.94269 19.7404 6.96115 19.6945 6.96115C19.6486 6.96115 19.611 6.97961 19.611 7.00218C19.611 7.02475 19.5546 7.04321 19.4857 7.04321C19.4169 7.04321 19.3605 7.06167 19.3605 7.08424C19.3605 7.1068 19.3147 7.12527 19.2586 7.12527C19.2026 7.12527 19.1451 7.14373 19.1309 7.16629C19.1167 7.18886 19.0685 7.20732 19.024 7.20732C18.9794 7.20732 18.943 7.22579 18.943 7.24835C18.943 7.27092 18.896 7.28938 18.8386 7.28938C18.7812 7.28938 18.7342 7.30784 18.7342 7.33041C18.7342 7.35297 18.6966 7.37144 18.6507 7.37144C18.6048 7.37144 18.5672 7.3899 18.5672 7.41247C18.5672 7.43503 18.5214 7.4535 18.4653 7.4535C18.4093 7.4535 18.3518 7.47196 18.3376 7.49452C18.3234 7.51709 18.2847 7.53555 18.2514 7.53555C18.2182 7.53555 18.0936 7.58171 17.9747 7.63812C17.8557 7.69454 17.7336 7.7407 17.7035 7.7407C17.6733 7.7407 17.6487 7.75916 17.6487 7.78173C17.6487 7.80429 17.6111 7.82275 17.5652 7.82275C17.5192 7.82275 17.4817 7.84122 17.4817 7.86378C17.4817 7.88635 17.4441 7.90481 17.3982 7.90481C17.3522 7.90481 17.3147 7.91979 17.3147 7.93815C17.3147 7.95651 17.2489 7.99692 17.1685 8.0279C17.0882 8.05887 17.0224 8.09929 17.0224 8.11765C17.0224 8.13601 16.9848 8.15098 16.9389 8.15098C16.893 8.15098 16.8554 8.16945 16.8554 8.19201C16.8554 8.21458 16.8178 8.23304 16.7719 8.23304C16.726 8.23304 16.6884 8.2515 16.6884 8.27407C16.6884 8.29664 16.6638 8.3151 16.6336 8.3151C16.6035 8.3151 16.5385 8.35202 16.4892 8.39716C16.44 8.44229 16.3707 8.47921 16.3353 8.47921C16.2999 8.47921 16.2709 8.49768 16.2709 8.52024C16.2709 8.54281 16.2419 8.56127 16.2065 8.56127C16.1711 8.56127 16.1018 8.5982 16.0525 8.64333C16.0032 8.68846 15.9382 8.72539 15.9082 8.72539C15.878 8.72539 15.8534 8.74385 15.8534 8.76641C15.8534 8.78898 15.82 8.80744 15.779 8.80744C15.7382 8.80744 15.6777 8.84437 15.6446 8.8895C15.6115 8.93463 15.551 8.97156 15.5102 8.97156C15.4692 8.97156 15.4358 8.98858 15.4358 9.0093C15.4358 9.08941 16.133 9.09803 21.6359 9.08634L27.3142 9.07413L27.3407 8.13047C27.3725 6.99479 27.4339 6.72093 27.7739 6.19863C28.0161 5.8265 28.1191 5.85235 26.4269 5.86066C25.606 5.86466 24.7558 5.88199 24.5377 5.89922ZM29.6105 6.25812C28.8356 6.45886 28.615 6.86309 28.5954 8.11857L28.5808 9.05033L28.6781 9.07372C28.7316 9.08654 29.3485 9.09198 30.0489 9.08562L31.3223 9.07413V8.1715C31.3223 7.27369 31.3217 7.26764 31.2095 7.04311C30.9059 6.43588 30.2215 6.09986 29.6105 6.25812ZM32.4715 6.78678C32.472 6.82627 32.4921 6.93243 32.5161 7.02269C32.5402 7.11296 32.5726 7.61146 32.5882 8.13047L32.6166 9.07413L34.8921 9.08623C37.1329 9.09823 37.6059 9.0849 37.6059 9.00961C37.6059 8.98869 37.5777 8.97156 37.5433 8.97156C37.5088 8.97156 37.4807 8.9531 37.4807 8.93053C37.4807 8.90796 37.4525 8.8895 37.418 8.8895C37.3836 8.8895 37.3554 8.87104 37.3554 8.84847C37.3554 8.82591 37.3272 8.80744 37.2928 8.80744C37.2583 8.80744 37.2301 8.78898 37.2301 8.76641C37.2301 8.74385 37.2011 8.72539 37.1657 8.72539C37.1304 8.72539 37.061 8.68846 37.0118 8.64333C36.9625 8.5982 36.8975 8.56127 36.8674 8.56127C36.8373 8.56127 36.8126 8.54281 36.8126 8.52024C36.8126 8.49768 36.7751 8.47921 36.7291 8.47921C36.6832 8.47921 36.6456 8.46075 36.6456 8.43818C36.6456 8.41562 36.6166 8.39716 36.5812 8.39716C36.5458 8.39716 36.4765 8.36023 36.4273 8.3151C36.378 8.26997 36.313 8.23304 36.2829 8.23304C36.2527 8.23304 36.2281 8.21458 36.2281 8.19201C36.2281 8.16945 36.1921 8.15098 36.148 8.15098C36.1041 8.15098 36.0618 8.13621 36.0541 8.11806C36.0316 8.06462 35.0881 7.62489 34.8771 7.5695C34.7706 7.5415 34.6833 7.50386 34.6833 7.48601C34.6833 7.46816 34.6457 7.4535 34.5998 7.4535C34.5539 7.4535 34.5163 7.43503 34.5163 7.41247C34.5163 7.3899 34.4787 7.37144 34.4328 7.37144C34.3869 7.37144 34.3493 7.35297 34.3493 7.33041C34.3493 7.30784 34.3023 7.28938 34.2449 7.28938C34.1875 7.28938 34.1405 7.27092 34.1405 7.24835C34.1405 7.22579 34.0936 7.20732 34.0362 7.20732C33.9787 7.20732 33.9318 7.18886 33.9318 7.16629C33.9318 7.14373 33.8848 7.12527 33.8274 7.12527C33.77 7.12527 33.723 7.1068 33.723 7.08424C33.723 7.06167 33.6666 7.04321 33.5978 7.04321C33.5289 7.04321 33.4725 7.02475 33.4725 7.00218C33.4725 6.97961 33.4161 6.96115 33.3473 6.96115C33.2784 6.96115 33.222 6.94269 33.222 6.92012C33.222 6.89756 33.1762 6.87909 33.1201 6.87909C33.0641 6.87909 33.0066 6.86063 32.9924 6.83806C32.9782 6.8155 32.9113 6.79704 32.8437 6.79704C32.7762 6.79704 32.721 6.77857 32.721 6.75601C32.721 6.73344 32.6646 6.71498 32.5957 6.71498C32.5039 6.71498 32.4708 6.73416 32.4715 6.78678ZM42.009 12.9616C41.9981 12.9898 41.994 18.8795 41.9999 26.0498C42.007 34.7134 41.9967 39.0917 41.9689 39.1015C41.946 39.1097 41.94 39.13 41.9557 39.1466C41.9886 39.1814 42.2821 38.9063 42.2821 38.8408C42.2821 38.8169 42.3666 38.7142 42.47 38.6127C42.5733 38.5111 42.6578 38.4145 42.6578 38.3979C42.6578 38.3814 42.7004 38.3219 42.7525 38.2657C42.8933 38.1135 43.1589 37.7476 43.1589 37.7055C43.1589 37.6853 43.1964 37.6421 43.2424 37.6096C43.2883 37.5771 43.3259 37.5217 43.3259 37.4865C43.3259 37.4513 43.3634 37.3959 43.4094 37.3634C43.4553 37.3309 43.4929 37.2755 43.4929 37.2403C43.4929 37.2052 43.5304 37.1498 43.5764 37.1173C43.6223 37.0847 43.6599 37.0294 43.6599 36.9942C43.6599 36.959 43.6975 36.9036 43.7434 36.8711C43.7893 36.8386 43.8269 36.7876 43.8269 36.7577C43.8269 36.7279 43.8614 36.6671 43.9037 36.6226C43.946 36.5779 44.007 36.4911 44.0393 36.4293C44.0717 36.3677 44.1076 36.308 44.119 36.2967C44.1604 36.2563 44.2918 36.0287 44.3144 35.9582C44.3272 35.9187 44.3542 35.8864 44.3746 35.8864C44.3948 35.8864 44.4114 35.851 44.4114 35.8077C44.4114 35.7645 44.4279 35.723 44.448 35.7154C44.4961 35.6975 44.7872 35.1261 44.7872 35.0497C44.7872 35.0172 44.8013 34.9845 44.8185 34.9769C44.8636 34.9572 45.0377 34.6174 45.0377 34.5491C45.0377 34.5174 45.0565 34.4914 45.0794 34.4914C45.1024 34.4914 45.1212 34.4556 45.1212 34.4118C45.1212 34.368 45.14 34.3207 45.1629 34.3068C45.1859 34.2928 45.2047 34.2456 45.2047 34.2018C45.2047 34.158 45.2235 34.1222 45.2464 34.1222C45.2694 34.1222 45.2882 34.0852 45.2882 34.0401C45.2882 33.995 45.307 33.958 45.3299 33.958C45.3529 33.958 45.3717 33.9223 45.3717 33.8785C45.3717 33.8347 45.3905 33.7874 45.4134 33.7734C45.4364 33.7595 45.4552 33.703 45.4552 33.6479C45.4552 33.5928 45.474 33.5478 45.4969 33.5478C45.5199 33.5478 45.5387 33.5108 45.5387 33.4657C45.5387 33.4206 45.5575 33.3836 45.5804 33.3836C45.6034 33.3836 45.6222 33.3386 45.6222 33.2835C45.6222 33.2285 45.641 33.1719 45.664 33.158C45.6869 33.144 45.7057 33.0875 45.7057 33.0324C45.7057 32.9774 45.7245 32.9323 45.7475 32.9323C45.7704 32.9323 45.7892 32.8952 45.7892 32.8498C45.7892 32.8043 45.808 32.7305 45.831 32.6856C45.8539 32.6408 45.8915 32.5674 45.9145 32.5226C45.9374 32.4777 45.9562 32.405 45.9562 32.3609C45.9562 32.3168 45.975 32.2693 45.998 32.2554C46.0209 32.2414 46.0397 32.1768 46.0397 32.1118C46.0397 32.0467 46.0585 31.9821 46.0815 31.9682C46.1044 31.9542 46.1232 31.8885 46.1232 31.8221C46.1232 31.7557 46.142 31.7015 46.165 31.7015C46.1879 31.7015 46.2067 31.6461 46.2067 31.5784C46.2067 31.5107 46.2255 31.4553 46.2485 31.4553C46.2714 31.4553 46.2902 31.3918 46.2902 31.3142C46.2902 31.2365 46.309 31.1615 46.332 31.1476C46.3549 31.1336 46.3737 31.0598 46.3737 30.9835C46.3737 30.9072 46.3913 30.834 46.4127 30.8211C46.4341 30.8081 46.4647 30.6496 46.4808 30.469C46.4968 30.2883 46.5262 30.1307 46.5462 30.1186C46.5662 30.1064 46.5825 30.0237 46.5825 29.9348C46.5825 29.8458 46.6013 29.7731 46.6242 29.7731C46.6472 29.7731 46.666 29.6727 46.666 29.5499C46.666 29.4271 46.6848 29.3152 46.7077 29.3013C46.7307 29.2873 46.7495 29.1673 46.7495 29.0346C46.7495 28.9019 46.7683 28.7819 46.7912 28.7679C46.8142 28.754 46.833 28.5959 46.833 28.4167C46.833 28.2268 46.8504 28.0909 46.8747 28.0909C46.9003 28.0909 46.9165 27.8927 46.9165 27.5781C46.9165 27.2635 46.9327 27.0652 46.9582 27.0652C46.9851 27.0652 47 26.6686 47 25.9574C47 25.2463 46.9851 24.8497 46.9582 24.8497C46.9326 24.8497 46.9165 24.6445 46.9165 24.3163C46.9165 23.9881 46.9004 23.7829 46.8747 23.7829C46.8506 23.7829 46.833 23.6538 46.833 23.4777C46.833 23.3098 46.8142 23.1609 46.7912 23.147C46.7683 23.133 46.7495 23.0027 46.7495 22.8573C46.7495 22.7085 46.7312 22.5931 46.7077 22.5931C46.6848 22.5931 46.666 22.5008 46.666 22.3879C46.666 22.2751 46.6472 22.1828 46.6242 22.1828C46.6013 22.1828 46.5825 22.0916 46.5825 21.9801C46.5825 21.8686 46.5659 21.7673 46.5457 21.755C46.5255 21.7428 46.4956 21.594 46.4796 21.4246C46.4634 21.2552 46.4329 21.1062 46.4119 21.0934C46.3909 21.0807 46.3737 21.0077 46.3737 20.9314C46.3737 20.8551 46.357 20.7825 46.3366 20.7701C46.3162 20.7577 46.288 20.6828 46.2739 20.6036C46.26 20.5244 46.237 20.395 46.223 20.316C46.209 20.237 46.1808 20.1724 46.1604 20.1724C46.1399 20.1724 46.1232 20.1181 46.1232 20.0518C46.1232 19.9854 46.1044 19.9197 46.0815 19.9057C46.0585 19.8918 46.0397 19.8364 46.0397 19.7826C46.0397 19.7289 46.0209 19.6735 45.998 19.6595C45.975 19.6456 45.9562 19.5981 45.9562 19.554C45.9562 19.5099 45.9374 19.4372 45.9145 19.3923C45.8915 19.3475 45.8539 19.2741 45.831 19.2293C45.808 19.1844 45.7892 19.1106 45.7892 19.0651C45.7892 19.0197 45.7704 18.9826 45.7475 18.9826C45.7245 18.9826 45.7057 18.9272 45.7057 18.8595C45.7057 18.7918 45.6869 18.7364 45.664 18.7364C45.641 18.7364 45.6222 18.7006 45.6222 18.6568C45.6222 18.613 45.6034 18.5657 45.5804 18.5518C45.5575 18.5378 45.5387 18.4813 45.5387 18.4262C45.5387 18.3711 45.5199 18.3261 45.4969 18.3261C45.474 18.3261 45.4552 18.2892 45.4552 18.244C45.4552 18.1989 45.4364 18.162 45.4134 18.162C45.3905 18.162 45.3717 18.1158 45.3717 18.0594C45.3717 18.003 45.3529 17.9568 45.3299 17.9568C45.307 17.9568 45.2882 17.9199 45.2882 17.8748C45.2882 17.8297 45.2694 17.7927 45.2464 17.7927C45.2235 17.7927 45.2047 17.7558 45.2047 17.7107C45.2047 17.6655 45.1859 17.6286 45.1629 17.6286C45.14 17.6286 45.1212 17.5928 45.1212 17.549C45.1212 17.5052 45.1024 17.4579 45.0794 17.444C45.0565 17.43 45.0377 17.3735 45.0377 17.3184C45.0377 17.2634 45.0189 17.2183 44.9959 17.2183C44.973 17.2183 44.9542 17.1829 44.9542 17.1397C44.9542 17.0965 44.9401 17.0549 44.9229 17.0473C44.9056 17.0399 44.7793 16.8121 44.6421 16.5414C44.5049 16.2706 44.3827 16.0398 44.3706 16.0285C44.3586 16.0172 44.3221 15.9572 44.2895 15.8952C44.2569 15.8331 44.2147 15.7823 44.1956 15.7823C44.1766 15.7823 44.1609 15.7454 44.1609 15.7003C44.1609 15.6551 44.1421 15.6182 44.1191 15.6182C44.0962 15.6182 44.0774 15.5854 44.0774 15.5452C44.0774 15.5051 44.0398 15.4456 43.9939 15.4131C43.948 15.3806 43.9104 15.3296 43.9104 15.2997C43.9104 15.2699 43.8728 15.2059 43.8269 15.1575C43.781 15.109 43.7434 15.0451 43.7434 15.0156C43.7434 14.986 43.7246 14.9618 43.7016 14.9618C43.6787 14.9618 43.6599 14.9341 43.6599 14.9002C43.6599 14.8664 43.6411 14.8387 43.6181 14.8387C43.5952 14.8387 43.5764 14.811 43.5764 14.7771C43.5764 14.7433 43.5576 14.7156 43.5346 14.7156C43.5117 14.7156 43.4929 14.6944 43.4929 14.6687C43.4929 14.643 43.4365 14.569 43.3676 14.5043C43.2987 14.4396 43.2424 14.3631 43.2424 14.3345C43.2424 14.3058 43.2048 14.2557 43.1589 14.2232C43.1129 14.1907 43.075 14.1358 43.0747 14.1014C43.0743 14.0668 43.0179 13.9761 42.9495 13.8997C42.8809 13.8233 42.8248 13.7455 42.8248 13.7267C42.8248 13.7079 42.7591 13.628 42.6787 13.549C42.5983 13.47 42.5326 13.3885 42.5326 13.368C42.5326 13.3474 42.4574 13.2544 42.3656 13.1614C42.2737 13.0684 42.1986 12.9738 42.1986 12.9513C42.1986 12.8919 42.0326 12.9009 42.009 12.9616ZM8.29967 16.6877C8.25197 16.785 8.21283 16.8887 8.21283 16.9183C8.21283 16.948 8.19404 16.9722 8.17108 16.9722C8.14812 16.9722 8.12933 17.0091 8.12933 17.0542C8.12933 17.0993 8.11054 17.1363 8.08758 17.1363C8.06461 17.1363 8.04582 17.1732 8.04582 17.2183C8.04582 17.2635 8.02704 17.3004 8.00407 17.3004C7.98111 17.3004 7.96232 17.3373 7.96232 17.3824C7.96232 17.4276 7.94353 17.4645 7.92057 17.4645C7.89761 17.4645 7.87882 17.4924 7.87882 17.5266C7.87882 17.5607 7.86222 17.6207 7.84187 17.6599C7.65169 18.0264 7.54481 18.2683 7.54481 18.3319C7.54481 18.3738 7.52602 18.4082 7.50305 18.4082C7.48009 18.4082 7.4613 18.4451 7.4613 18.4902C7.4613 18.5354 7.44252 18.5723 7.41955 18.5723C7.39659 18.5723 7.3778 18.6277 7.3778 18.6954C7.3778 18.7631 7.36246 18.8185 7.34356 18.8185C7.32478 18.8185 7.28386 18.9108 7.25255 19.0236C7.22123 19.1364 7.18032 19.2287 7.16153 19.2287C7.14263 19.2287 7.12729 19.2841 7.12729 19.3518C7.12729 19.4195 7.1085 19.4749 7.08554 19.4749C7.06258 19.4749 7.04379 19.5199 7.04379 19.575C7.04379 19.6301 7.025 19.6866 7.00204 19.7006C6.97907 19.7145 6.96029 19.7699 6.96029 19.8237C6.96029 19.8774 6.9415 19.9328 6.91853 19.9467C6.89557 19.9607 6.87678 20.0253 6.87678 20.0903C6.87678 20.1554 6.85799 20.22 6.83503 20.2339C6.81207 20.2479 6.79328 20.3125 6.79328 20.3775C6.79328 20.4426 6.77449 20.5072 6.75153 20.5211C6.72856 20.5351 6.70978 20.6101 6.70978 20.6877C6.70978 20.7654 6.69308 20.8289 6.67262 20.8289C6.63212 20.8289 6.61145 20.9202 6.53588 21.434C6.50843 21.6202 6.47064 21.7725 6.45175 21.7725C6.43296 21.7725 6.41752 21.8648 6.41752 21.9777C6.41752 22.0905 6.39873 22.1828 6.37576 22.1828C6.35259 22.1828 6.33401 22.2922 6.33401 22.429C6.33401 22.5657 6.31543 22.6751 6.29226 22.6751C6.26909 22.6751 6.25051 22.7846 6.25051 22.9213C6.25051 23.0581 6.23193 23.1675 6.20876 23.1675C6.18444 23.1675 6.16701 23.3042 6.16701 23.4957C6.16701 23.6872 6.14957 23.824 6.12525 23.824C6.09968 23.824 6.0835 24.0222 6.0835 24.3368C6.0835 24.6514 6.06732 24.8497 6.04175 24.8497C6.01493 24.8497 6 25.2463 6 25.9574C6 26.6686 6.01493 27.0652 6.04175 27.0652C6.06732 27.0652 6.0835 27.2635 6.0835 27.5781C6.0835 27.8927 6.09968 28.0909 6.12525 28.0909C6.14957 28.0909 6.16701 28.2268 6.16701 28.4167C6.16701 28.5959 6.18579 28.754 6.20876 28.7679C6.23172 28.7819 6.25051 28.9122 6.25051 29.0576C6.25051 29.2064 6.26878 29.3218 6.29226 29.3218C6.31522 29.3218 6.33401 29.4233 6.33401 29.5475C6.33401 29.6716 6.3528 29.7731 6.37576 29.7731C6.39873 29.7731 6.41752 29.8654 6.41752 29.9783C6.41752 30.0911 6.43411 30.1834 6.45436 30.1834C6.47461 30.1834 6.50436 30.3218 6.52054 30.4908C6.53661 30.66 6.56709 30.8087 6.58807 30.8215C6.60905 30.8342 6.62627 30.9072 6.62627 30.9835C6.62627 31.0598 6.64506 31.1336 6.66802 31.1476C6.69099 31.1615 6.70978 31.2365 6.70978 31.3142C6.70978 31.3918 6.72856 31.4553 6.75153 31.4553C6.77449 31.4553 6.79328 31.5096 6.79328 31.5759C6.79328 31.6423 6.81207 31.708 6.83503 31.722C6.85799 31.7359 6.87678 31.8006 6.87678 31.8656C6.87678 31.9306 6.89557 31.9952 6.91853 32.0092C6.9415 32.0231 6.96029 32.0889 6.96029 32.1552C6.96029 32.2216 6.97907 32.2759 7.00204 32.2759C7.025 32.2759 7.04379 32.3209 7.04379 32.376C7.04379 32.4311 7.06258 32.4876 7.08554 32.5015C7.1085 32.5155 7.12729 32.5709 7.12729 32.6246C7.12729 32.6784 7.14608 32.7338 7.16904 32.7477C7.19201 32.7617 7.21079 32.8089 7.21079 32.8527C7.21079 32.8965 7.22958 32.9323 7.25255 32.9323C7.27551 32.9323 7.2943 32.9774 7.2943 33.0324C7.2943 33.0875 7.31309 33.144 7.33605 33.158C7.35901 33.1719 7.3778 33.2285 7.3778 33.2835C7.3778 33.3386 7.39659 33.3836 7.41955 33.3836C7.44252 33.3836 7.4613 33.4206 7.4613 33.4657C7.4613 33.5108 7.48009 33.5478 7.50305 33.5478C7.52602 33.5478 7.54481 33.6032 7.54481 33.6708C7.54481 33.7385 7.56359 33.7939 7.58656 33.7939C7.60952 33.7939 7.62831 33.8309 7.62831 33.876C7.62831 33.9211 7.6471 33.958 7.67006 33.958C7.69302 33.958 7.71181 33.995 7.71181 34.0401C7.71181 34.0852 7.7306 34.1222 7.75356 34.1222C7.77653 34.1222 7.79532 34.1501 7.79532 34.1842C7.79532 34.2184 7.81212 34.2784 7.83268 34.3176C7.85325 34.3567 7.93299 34.5181 8.00992 34.6761C8.08685 34.834 8.16398 34.9694 8.18131 34.9769C8.19864 34.9845 8.21283 35.0163 8.21283 35.0477C8.21283 35.1243 8.3886 35.4761 8.42691 35.4761C8.50467 35.4761 8.51219 34.4583 8.49872 25.8221C8.48338 16.0874 8.48818 16.3045 8.29967 16.6877Z" fill="#10489D"/>
<path fill-rule="evenodd" clip-rule="evenodd" d="M11.0102 14.7771V17.9569H21.1558H31.3014V14.7771V11.5974H21.1558H11.0102V14.7771ZM32.6375 14.7771V17.9569H35.4954C39.0893 17.9569 39.1526 17.9684 39.5682 18.697L39.6726 18.88L39.6935 30.0877C39.705 36.2519 39.7268 41.3076 39.742 41.3225C39.7573 41.3375 39.8858 41.2375 40.0275 41.1003C40.1693 40.9631 40.303 40.8509 40.3246 40.8509C40.3757 40.8509 41.6976 39.5376 41.6976 39.4867C41.6976 39.4652 41.7539 39.3961 41.8228 39.3328C41.8917 39.2695 41.9481 39.1883 41.9481 39.1523C41.9481 39.1162 41.9622 39.0867 41.9794 39.0867C42.0306 39.0867 42.0015 12.2079 41.9502 12.1575C41.9261 12.1338 41.9063 12.0967 41.9063 12.0752C41.9063 12.0032 41.6895 11.7555 41.5571 11.6761C41.4304 11.6003 41.2844 11.5977 37.0318 11.5975L32.6375 11.5974V14.7771Z" fill="#E8EBEC"/>
<path fill-rule="evenodd" clip-rule="evenodd" d="M11.0102 10.288V11.5359H21.1662H31.3223L31.3107 10.3153L31.299 9.09467H24.5678C20.8656 9.09467 16.3006 9.08236 14.4234 9.06738L11.0102 9.0401V10.288ZM35.0799 9.09416L32.6166 9.11518L32.6055 10.3255L32.5945 11.5359H36.9894C42.0958 11.5359 41.5386 11.4801 41.9913 12.0367C42.0134 12.064 42.0316 12.1321 42.0316 12.1882C42.0316 12.2442 42.0504 12.3015 42.0733 12.3154C42.1008 12.332 42.1151 11.9748 42.1151 11.274C42.1151 10.6071 42.0994 10.1978 42.0733 10.1819C42.0504 10.168 42.0316 10.0838 42.0316 9.99484C42.0316 9.90591 42.0128 9.83319 41.9898 9.83319C41.9669 9.83319 41.9481 9.80375 41.9481 9.76774C41.9481 9.69051 41.8 9.47316 41.6787 9.37233C41.6317 9.33325 41.5705 9.28248 41.5428 9.2595C41.515 9.23653 41.4633 9.21775 41.4279 9.21775C41.3926 9.21775 41.3634 9.20391 41.3632 9.18698C41.3617 9.04277 41.2703 9.04143 35.0799 9.09416ZM10.9975 18.4379C10.9552 19.1709 10.6737 19.547 10.0385 19.7193C9.44951 19.8791 8.61459 19.4061 8.53662 18.8685C8.53098 18.8298 8.51689 22.5367 8.5053 27.1063C8.49372 31.6758 8.46835 35.4515 8.44894 35.4966C8.41992 35.5642 8.42243 35.5679 8.46303 35.5172C8.50405 35.4659 8.50885 35.4712 8.49153 35.5487C8.48015 35.5998 8.49257 35.6652 8.51929 35.6939C8.59778 35.7783 8.6721 35.9216 8.6721 35.9885C8.6721 36.0226 8.69089 36.0505 8.71385 36.0505C8.73682 36.0505 8.7556 36.0747 8.7556 36.1044C8.7556 36.1339 8.78848 36.1939 8.82867 36.2377C8.86885 36.2814 8.92981 36.3726 8.96405 36.4403C8.99839 36.508 9.05945 36.5932 9.09974 36.6298C9.14014 36.6663 9.17312 36.7222 9.17312 36.7541C9.17312 36.7859 9.2107 36.8386 9.25662 36.8711C9.30255 36.9036 9.34012 36.959 9.34012 36.9942C9.34012 37.0294 9.3777 37.0848 9.42363 37.1173C9.46956 37.1498 9.50713 37.2052 9.50713 37.2404C9.50713 37.2756 9.54471 37.3309 9.59063 37.3635C9.63656 37.396 9.67414 37.4514 9.67414 37.4865C9.67414 37.5217 9.71171 37.5771 9.75764 37.6096C9.80357 37.6421 9.84114 37.6924 9.84114 37.7212C9.84114 37.7502 9.85993 37.7737 9.88289 37.7737C9.90586 37.7737 9.92465 37.8014 9.92465 37.8353C9.92465 37.8691 9.94218 37.8968 9.96358 37.8968C9.98498 37.8968 10.013 37.9291 10.0258 37.9686C10.0385 38.0081 10.1146 38.1143 10.1948 38.2045C10.2749 38.2948 10.3409 38.381 10.3413 38.396C10.3418 38.4111 10.4173 38.5004 10.5092 38.5943C10.601 38.6883 10.6762 38.781 10.6762 38.8005C10.6762 38.82 10.7842 38.9468 10.9162 39.0824C11.1907 39.364 11.4695 39.6672 11.4695 39.6838C11.4695 39.7174 12.6039 40.8099 12.6388 40.8099C12.6616 40.8099 12.6802 40.8376 12.6802 40.8714C12.6802 40.9053 12.7087 40.933 12.7436 40.933C12.7785 40.933 12.9292 41.053 13.0785 41.1996C13.2277 41.3463 13.3643 41.4663 13.3822 41.4663C13.4 41.4663 13.4952 41.5402 13.5937 41.6304C13.6922 41.7207 13.7919 41.7946 13.8152 41.7946C13.8384 41.7946 13.9101 41.8499 13.9745 41.9176C14.0389 41.9853 14.1075 42.0407 14.1269 42.0408C14.1465 42.0408 14.2282 42.0962 14.3086 42.1638C14.3889 42.2314 14.474 42.2868 14.4977 42.2868C14.5213 42.2869 14.5677 42.3238 14.6008 42.369C14.6339 42.4141 14.6804 42.451 14.7039 42.451C14.7276 42.4511 14.8015 42.4973 14.8682 42.5536C14.9349 42.61 15.0025 42.6562 15.0183 42.6562C15.0342 42.6562 15.0999 42.7007 15.1643 42.7551C15.2288 42.8096 15.3303 42.8788 15.39 42.909C15.4496 42.9392 15.5349 42.9962 15.5794 43.0357C15.6239 43.0752 15.6769 43.1075 15.6971 43.1075C15.7174 43.1075 15.8182 43.1644 15.9212 43.2341C16.0242 43.3037 16.1356 43.3505 16.1688 43.338C16.2212 43.3182 16.2291 42.1455 16.2291 34.4742C16.2291 28.2014 16.2425 25.5702 16.2751 25.4159C16.3204 25.2017 16.3418 25.178 17.705 23.8375L19.0891 22.4767L19.3605 22.4508C19.5098 22.4367 22.2572 22.4305 25.4659 22.4373L31.3001 22.4495L31.3111 20.234L31.3223 18.0184H21.172H11.0216L10.9975 18.4379ZM32.5957 22.9474V27.8764L32.6897 27.9396C33.4304 28.4376 33.4304 29.6984 32.6897 29.9814L32.5957 30.0173V31.4758V32.9344L32.838 33.1693C33.4883 33.7999 33.3654 34.8274 32.5991 35.1669C32.3919 35.2588 32.3902 35.2878 32.5794 35.4966C32.8526 35.798 33.1673 36.1514 33.3101 36.3172C33.3879 36.4075 33.4613 36.4906 33.4733 36.5019C33.4855 36.5131 33.5888 36.6331 33.7031 36.7685C33.8174 36.9039 33.9208 37.0239 33.9328 37.0352C33.9449 37.0465 34.0577 37.1757 34.1833 37.3223C34.3091 37.469 34.4448 37.6189 34.485 37.6554C34.5252 37.6919 34.558 37.7393 34.558 37.7605C34.558 37.7818 34.5909 37.8359 34.6311 37.8806C34.7238 37.9837 34.8485 38.1831 34.8786 38.2763C34.8913 38.3158 34.9191 38.3481 34.9402 38.3481C34.9851 38.3481 34.9379 38.2555 34.7185 37.9129L34.558 37.6624V31.7173V25.7721L33.5978 24.8292L32.6375 23.8862V23.1668V22.4474L32.8149 22.4631C32.9966 22.4793 35.5834 24.9142 35.7512 25.2272C35.802 25.322 35.8106 26.6564 35.8106 34.5065C35.8106 39.5493 35.822 43.7043 35.836 43.74C35.8634 43.8103 36.0611 43.8313 36.0611 43.7639C36.0611 43.7414 36.0987 43.7229 36.1446 43.7229C36.1905 43.7229 36.2281 43.7044 36.2281 43.6819C36.2281 43.6593 36.2657 43.6408 36.3116 43.6408C36.3575 43.6408 36.3951 43.6224 36.3951 43.5998C36.3951 43.5773 36.4327 43.5588 36.4786 43.5588C36.5245 43.5588 36.5621 43.5424 36.5621 43.5222C36.5621 43.5021 36.6136 43.4729 36.6765 43.4575C36.7395 43.4419 36.8005 43.4168 36.8122 43.4017C36.8448 43.3596 36.9875 43.2742 37.1153 43.2201C37.1785 43.1934 37.2301 43.1594 37.2301 43.1445C37.2301 43.1296 37.2865 43.0945 37.3554 43.0664C37.4243 43.0384 37.4807 42.9993 37.4807 42.9794C37.4807 42.9596 37.5088 42.9434 37.5433 42.9434C37.5777 42.9434 37.6059 42.9249 37.6059 42.9023C37.6059 42.8798 37.6305 42.8613 37.6607 42.8613C37.6908 42.8613 37.7558 42.8244 37.8051 42.7792C37.8543 42.7341 37.9142 42.6972 37.9381 42.6972C37.9621 42.6972 37.9817 42.6787 37.9817 42.6562C37.9817 42.6336 38.0057 42.6151 38.0351 42.6151C38.0644 42.6151 38.1149 42.5792 38.1471 42.5352C38.1793 42.4913 38.2206 42.4645 38.2389 42.4756C38.2571 42.4867 38.373 42.3934 38.4964 42.2682C38.6197 42.1431 38.7423 42.0407 38.7687 42.0407C38.7951 42.0407 38.8167 42.0223 38.8167 41.9997C38.8167 41.9771 38.8407 41.9587 38.8701 41.9587C38.8995 41.9587 38.9501 41.9225 38.9826 41.8782C39.0151 41.8338 39.099 41.7854 39.1693 41.7705C39.2394 41.7556 39.3763 41.6719 39.4733 41.5844C39.5704 41.4969 39.6691 41.4253 39.6925 41.4253C39.716 41.4253 39.7352 41.4057 39.7352 41.3818C39.7352 41.3579 39.7168 41.3496 39.6941 41.3633C39.6673 41.3797 39.6492 37.5099 39.6419 30.1547L39.6309 18.921L39.5265 18.7367C39.3754 18.4701 39.2193 18.3128 38.9719 18.1781L38.7541 18.0594L35.6749 18.0389L32.5957 18.0184V22.9474ZM25.455 23.6906L19.6294 23.7012L18.5764 24.7388L17.5234 25.7765V34.8899C17.5234 44.2839 17.5213 44.1332 17.6532 44.1332C17.6966 44.1332 17.7322 44.1517 17.7322 44.1742C17.7322 44.1968 17.7698 44.2153 17.8157 44.2153C17.8616 44.2153 17.8992 44.2337 17.8992 44.2563C17.8992 44.2788 17.9368 44.2973 17.9827 44.2973C18.0286 44.2973 18.0662 44.3158 18.0662 44.3383C18.0662 44.3609 18.0939 44.3794 18.1276 44.3794C18.1613 44.3794 18.2559 44.4163 18.3376 44.4614C18.4193 44.5066 18.5233 44.5435 18.5685 44.5435C18.6137 44.5435 18.6507 44.5619 18.6507 44.5845C18.6507 44.6071 18.6871 44.6255 18.7317 44.6255C18.7763 44.6255 18.8244 44.644 18.8386 44.6666C18.8528 44.6891 18.9009 44.7076 18.9455 44.7076C18.9901 44.7076 19.0265 44.7261 19.0265 44.7486C19.0265 44.7712 19.0643 44.7897 19.1105 44.7897C19.1567 44.7897 19.2366 44.811 19.2879 44.837C19.4885 44.939 19.5292 44.9538 19.608 44.9538C19.6529 44.9538 19.7012 44.9722 19.7154 44.9948C19.7296 45.0174 19.7833 45.0358 19.8348 45.0358C19.8862 45.0358 19.9462 45.0518 19.968 45.0714C20.0121 45.111 20.279 45.1679 20.279 45.1377C20.279 45.1271 20.2368 45.0712 20.1851 45.0134C20.1334 44.9554 20.0534 44.8309 20.0072 44.7364C19.9494 44.618 19.8715 44.5388 19.7567 44.4815C19.3945 44.3009 18.8595 43.846 18.8595 43.7188C18.8595 43.6198 19.4564 43.092 19.6873 42.9867C19.882 42.898 19.924 42.8549 20.054 42.6118C20.2756 42.1976 20.7038 41.8036 20.8496 41.8802C21.0125 41.966 21.3173 42.3169 21.4873 42.6144C21.6181 42.8434 21.673 42.8976 21.8824 43.0042C22.1732 43.1523 22.6589 43.5954 22.6589 43.7126C22.6589 43.827 22.1489 44.29 21.8583 44.4395C21.6686 44.537 21.5995 44.6021 21.5092 44.7677C21.3634 45.0354 21.1248 45.323 21.0486 45.323C21.0157 45.323 20.9888 45.3415 20.9888 45.3641C20.9888 45.3866 21.064 45.4051 21.1558 45.4051C21.2477 45.4051 21.3228 45.4235 21.3228 45.4461C21.3228 45.4687 21.398 45.4871 21.4898 45.4871C21.5817 45.4871 21.6568 45.5056 21.6568 45.5282C21.6568 45.5507 21.732 45.5692 21.8238 45.5692C21.9157 45.5692 21.9908 45.5877 21.9908 45.6102C21.9908 45.6328 22.0754 45.6513 22.1787 45.6513C22.2821 45.6513 22.3666 45.6697 22.3666 45.6923C22.3666 45.7148 22.4594 45.7333 22.5729 45.7333C22.6863 45.7333 22.7908 45.7518 22.805 45.7743C22.8192 45.7969 22.9331 45.8154 23.058 45.8154C23.1829 45.8154 23.2851 45.8338 23.2851 45.8564C23.2851 45.8798 23.4092 45.8974 23.574 45.8974C23.7678 45.8974 23.8684 45.9142 23.8801 45.9487C23.8938 45.989 24.4492 46 26.47 46C28.4724 46 29.0543 45.9886 29.0949 45.9487C29.1264 45.9177 29.2595 45.8974 29.431 45.8974C29.5924 45.8974 29.7149 45.8797 29.7149 45.8564C29.7149 45.8336 29.8262 45.8154 29.9654 45.8154C30.1045 45.8154 30.2159 45.7971 30.2159 45.7743C30.2159 45.7518 30.3098 45.7333 30.4246 45.7333C30.5395 45.7333 30.6334 45.7148 30.6334 45.6923C30.6334 45.6697 30.7179 45.6513 30.8213 45.6513C30.9246 45.6513 31.0092 45.6328 31.0092 45.6102C31.0092 45.5877 31.0373 45.5692 31.0718 45.5692C31.1587 45.5692 31.162 45.574 30.8944 45.2994C30.7623 45.1638 30.5927 44.9395 30.5174 44.8007C30.3979 44.5802 30.3506 44.534 30.1417 44.434C29.8772 44.3074 29.3391 43.8252 29.3391 43.7147C29.3391 43.5993 29.8178 43.1703 30.1214 43.0134C30.335 42.9032 30.4159 42.8364 30.4529 42.74L30.5019 42.6125L31.0165 42.6316L31.5311 42.6508L30.8839 42.5956C29.7095 42.4955 29.1469 42.3537 29.0292 42.1279C28.8747 41.832 28.7404 41.3336 28.6702 40.7962C28.6413 40.5744 28.6062 40.4099 28.5922 40.4309C28.5782 40.4519 28.5115 40.4824 28.444 40.4986C28.2504 40.5452 28.1293 40.6478 27.2386 41.5191C25.9433 42.786 25.9875 42.7866 24.6528 41.4787C23.5434 40.3917 23.7619 40.4817 22.2323 40.4814C20.9261 40.4811 20.7776 40.4636 20.584 40.2861C20.3319 40.0552 20.3433 40.1255 20.3208 38.6599C20.2958 37.0366 20.4284 37.342 19.2327 36.1531C17.9498 34.8773 17.9482 34.9677 19.2762 33.6504C20.4193 32.5163 20.2955 32.8054 20.3207 31.2091C20.3428 29.8028 20.3476 29.7682 20.5465 29.5941C20.7922 29.379 20.7511 29.3847 22.1976 29.3629C23.8237 29.3383 23.5282 29.4602 24.6838 28.3369C26.0309 27.0275 25.9311 27.0177 27.5217 28.6177C28.3157 29.4165 28.1665 29.3628 29.5933 29.3632L30.7795 29.3636L30.943 29.6129C31.0329 29.75 31.1503 29.8905 31.2039 29.9249L31.3014 29.9877V31.5179V33.0482L31.186 33.1441C31.0662 33.2439 30.8839 33.4763 30.8839 33.5295C30.8839 33.5463 30.9378 33.4881 31.0035 33.4001C31.0693 33.3121 31.1726 33.1953 31.2332 33.1406L31.3432 33.0412V31.5113V29.9816L31.1762 29.8298C31.0843 29.7463 31.0092 29.6531 31.0092 29.623C31.0092 29.5927 30.995 29.568 30.9776 29.568C30.8919 29.568 30.822 29.2805 30.823 28.932C30.824 28.5292 30.8976 28.3674 31.2137 28.073C31.2849 28.0068 31.3432 27.9364 31.3432 27.9166C31.3432 27.8968 31.2727 27.9462 31.1866 28.0264C30.9547 28.2426 30.8116 28.1518 30.5114 27.5983C30.3976 27.3886 30.3445 27.3373 30.1204 27.2206C29.837 27.0732 29.3391 26.6327 29.3391 26.5293C29.3391 26.3742 30.128 25.7117 30.3134 25.7112C30.3401 25.7111 30.4255 25.5904 30.5031 25.4429C30.6545 25.1552 31.1216 24.6446 31.2335 24.6446C31.2925 24.6446 31.3014 24.5797 31.3014 24.1522C31.3014 23.8814 31.2967 23.6644 31.291 23.67C31.2852 23.6756 28.6591 23.6848 25.455 23.6906ZM21.5736 24.9234C21.7243 25.0768 21.8997 25.3072 21.9635 25.4353C22.0641 25.6373 22.1128 25.6856 22.3322 25.8005C22.5992 25.9403 22.9366 26.216 23.0754 26.4075L23.1584 26.5221L23.0224 26.6911C22.8736 26.8758 22.5019 27.1675 22.304 27.2548C22.1452 27.3249 22.0326 27.4114 22.0326 27.4634C22.0326 27.6119 21.4491 28.3052 21.2798 28.3581C21.2015 28.3825 20.8639 28.1715 20.8633 28.0977C20.8632 28.0828 20.8105 28.0151 20.7462 27.9474C20.6819 27.8797 20.6167 27.7966 20.6012 27.7627C20.4804 27.4985 20.3569 27.3651 20.091 27.2111C19.8247 27.0569 19.3187 26.6112 19.3187 26.5306C19.3187 26.4325 19.8197 25.9781 20.0878 25.8329C20.3484 25.6919 20.3982 25.645 20.5083 25.4365C20.6423 25.1832 21.1393 24.6446 21.2393 24.6446C21.2726 24.6446 21.423 24.7701 21.5736 24.9234ZM25.5556 25.9374C26.0437 26.4115 26.0426 26.3667 25.5753 26.8414C25.0826 27.3419 25.0926 27.3418 24.5907 26.8507C24.1161 26.3863 24.1158 26.4139 24.6029 25.9376C25.0913 25.4599 25.0642 25.4599 25.5556 25.9374ZM28.0753 25.9259C28.5716 26.4116 28.5715 26.4069 28.097 26.8682C27.6016 27.3498 27.6309 27.35 27.1289 26.8604C26.6512 26.3946 26.651 26.4087 27.1391 25.9291C27.617 25.4595 27.5988 25.4596 28.0753 25.9259ZM31.1928 25.7104C31.0239 25.7775 30.4262 26.4208 30.4254 26.5363C30.4245 26.6554 31.118 27.3524 31.2373 27.3524C31.2929 27.3524 31.3014 27.2401 31.3014 26.5114C31.3014 26.0488 31.2967 25.6714 31.291 25.6728C31.2852 25.6743 31.241 25.6912 31.1928 25.7104ZM20.7667 26.0752C20.5674 26.2754 20.4043 26.4743 20.4043 26.5171C20.4043 26.6431 21.1689 27.3669 21.269 27.3357C21.3882 27.2985 22.0743 26.5962 22.0743 26.5114C22.0743 26.3883 21.3678 25.7113 21.2393 25.7113C21.1558 25.7113 21.0415 25.7993 20.7667 26.0752ZM33.0103 26.3231C33.1773 26.5302 33.1757 26.5392 32.9237 26.801C32.6368 27.0991 32.6375 27.0997 32.6375 26.5086V25.993L32.7598 26.0785C32.8271 26.1256 32.9399 26.2357 33.0103 26.3231ZM30.8275 33.6199C30.8168 33.637 30.7969 33.7247 30.7833 33.8148C30.7554 33.999 30.7756 33.9717 30.8363 33.7427C30.8748 33.5975 30.8715 33.55 30.8275 33.6199ZM30.7813 34.3273C30.8221 34.6606 31.2715 35.2245 31.4997 35.2289C31.6248 35.2314 31.5159 35.3923 30.9514 36.0393C30.6211 36.4178 30.3573 36.7345 30.3651 36.7429C30.3731 36.7514 30.432 36.6963 30.496 36.6205C30.5601 36.5447 30.8434 36.2185 31.1254 35.8959C31.6646 35.2791 31.6692 35.269 31.4562 35.1695C31.159 35.0307 30.9089 34.7138 30.8151 34.3572L30.7588 34.1427L30.7813 34.3273ZM33.5974 34.7366C33.6859 35.059 33.585 35.2969 33.2103 35.6505C32.9541 35.8923 32.9856 35.8965 32.7052 35.5827C32.4264 35.2706 32.4307 35.2926 32.6289 35.1932C32.7161 35.1495 32.8678 35.028 32.9661 34.9233C33.1269 34.7518 33.1841 34.6548 33.2814 34.3889C33.3238 34.2732 33.5338 34.5043 33.5974 34.7366ZM30.2366 36.8473C30.2137 36.8794 30.1134 36.9994 30.0137 37.114C29.9139 37.2287 29.8412 37.3224 29.852 37.3224C29.8629 37.3224 29.9789 37.2024 30.1099 37.0557C30.2409 36.9091 30.3325 36.7891 30.3132 36.7891C30.2939 36.7891 30.2594 36.8153 30.2366 36.8473ZM29.6105 37.5779C29.2409 38.0447 28.8291 38.7633 28.8943 38.8274C28.9082 38.8411 28.9314 38.8173 28.9457 38.7745C29.0682 38.41 29.3423 37.9525 29.6622 37.5789C29.7636 37.4604 29.831 37.3643 29.812 37.3652C29.793 37.3661 29.7023 37.4619 29.6105 37.5779ZM34.979 38.4302C34.9791 38.5014 35.1382 38.801 35.1408 38.7349C35.1417 38.7108 35.1057 38.6185 35.0607 38.5298C35.0157 38.4412 34.9789 38.3964 34.979 38.4302ZM35.1426 38.8391C35.1426 38.8608 35.1688 38.9577 35.2008 39.0545C35.4184 39.7107 35.441 40.7179 35.2539 41.4208C35.1915 41.6553 35.1494 41.856 35.1603 41.8668C35.1713 41.8775 35.192 41.8333 35.2064 41.7686C35.2207 41.7039 35.2486 41.614 35.2682 41.5689C35.3193 41.4514 35.3878 41.0186 35.4434 40.4611C35.4603 40.2921 35.3954 39.5453 35.3506 39.3944C35.3306 39.3267 35.2832 39.1651 35.2454 39.0354C35.1817 38.8173 35.1426 38.7424 35.1426 38.8391ZM28.8202 38.9871C28.8048 39.0472 28.8017 39.1055 28.8131 39.1168C28.8246 39.1281 28.8465 39.0882 28.862 39.0281C28.8773 38.9679 28.8805 38.9095 28.869 38.8982C28.8575 38.887 28.8356 38.9269 28.8202 38.9871ZM28.7337 39.2918C28.7178 39.3627 28.7143 39.43 28.7258 39.4413C28.7373 39.4525 28.7596 39.4037 28.7755 39.3328C28.7913 39.262 28.7949 39.1947 28.7834 39.1834C28.7719 39.1721 28.7496 39.2209 28.7337 39.2918ZM28.6495 39.7983C28.6333 39.9674 28.6285 40.1303 28.6387 40.1604C28.649 40.1904 28.6705 40.0602 28.6865 39.871C28.7026 39.6819 28.7074 39.519 28.6973 39.5089C28.6871 39.499 28.6655 39.6292 28.6495 39.7983ZM39.4122 41.5975C39.3387 41.6697 39.2668 41.7171 39.2523 41.7029C39.2154 41.6668 39.4083 41.4719 39.4839 41.4688C39.5223 41.4672 39.4951 41.5162 39.4122 41.5975ZM35.0401 42.0631C35.004 42.148 34.983 42.2259 34.9934 42.2361C35.0038 42.2464 35.0419 42.1853 35.0781 42.1004C35.1142 42.0155 35.1352 41.9376 35.1247 41.9274C35.1143 41.9171 35.0762 41.9783 35.0401 42.0631ZM34.4328 42.4106C34.0261 42.5387 33.0126 42.6549 32.2802 42.6574C32.0061 42.6583 31.9262 42.6698 31.9799 42.7005C32.0201 42.7234 32.053 42.7681 32.053 42.7996C32.053 42.831 32.1857 42.9254 32.3479 43.0091C32.6554 43.168 33.1385 43.6012 33.1385 43.7182C33.1385 43.8222 32.592 44.3066 32.3306 44.4344C32.1242 44.5353 32.0758 44.5827 31.972 44.7848C31.9059 44.9134 31.7656 45.1129 31.6602 45.2281C31.4382 45.4707 31.4326 45.4871 31.5728 45.4871C31.6302 45.4871 31.6772 45.4687 31.6772 45.4461C31.6772 45.4235 31.7523 45.4051 31.8442 45.4051C31.9361 45.4051 32.0112 45.3866 32.0112 45.3641C32.0112 45.3415 32.0664 45.323 32.134 45.323C32.2015 45.323 32.2684 45.3046 32.2826 45.282C32.2968 45.2594 32.3637 45.241 32.4312 45.241C32.4988 45.241 32.554 45.2247 32.554 45.2047C32.554 45.1847 32.657 45.1557 32.783 45.1402C32.9089 45.1248 33.0227 45.095 33.0359 45.074C33.0491 45.053 33.1047 45.0358 33.1594 45.0358C33.2141 45.0358 33.2704 45.0174 33.2846 44.9948C33.2988 44.9722 33.3471 44.9538 33.392 44.9538C33.4369 44.9538 33.5109 44.9353 33.5565 44.9127C33.6021 44.8902 33.6769 44.8532 33.7225 44.8307C33.7681 44.8081 33.8433 44.7897 33.8895 44.7897C33.9357 44.7897 33.9735 44.7712 33.9735 44.7486C33.9735 44.7261 34.01 44.7076 34.0545 44.7076C34.0991 44.7076 34.1472 44.6891 34.1614 44.6666C34.1756 44.644 34.2237 44.6255 34.2683 44.6255C34.3129 44.6255 34.3493 44.6071 34.3493 44.5845C34.3493 44.5619 34.3963 44.5435 34.4537 44.5435H34.558V43.4986V42.4537L34.6729 42.3924C34.8232 42.3123 34.7197 42.3201 34.4328 42.4106ZM25.5456 43.1357C26.045 43.6179 26.0437 43.5872 25.5847 44.0321C25.1357 44.4672 25.1047 44.4867 24.9842 44.4083C24.8034 44.2907 24.2037 43.6723 24.2037 43.6034C24.2037 43.5231 24.9991 42.7382 25.0804 42.7382C25.1099 42.7382 25.3192 42.9171 25.5456 43.1357ZM28.0713 43.1151C28.5792 43.6044 28.5792 43.5951 28.0678 44.0881C27.5919 44.5467 27.6208 44.5477 27.1158 44.0539C26.6629 43.6111 26.6628 43.6083 27.0741 43.2004C27.6435 42.6359 27.5797 42.6413 28.0713 43.1151ZM20.3095 43.2622C19.84 43.7256 19.84 43.7226 20.319 44.1836C20.7789 44.6261 20.7532 44.6267 21.2265 44.1616C21.7004 43.6958 21.7002 43.7357 21.2296 43.2775C20.7523 42.813 20.7643 42.8132 20.3095 43.2622ZM30.7891 43.2622C30.522 43.5258 30.4246 43.6499 30.4246 43.7266C30.4246 43.8494 31.1164 44.5435 31.2388 44.5435C31.3612 44.5435 32.053 43.8494 32.053 43.7266C32.053 43.5943 31.3694 42.9023 31.2388 42.9023C31.1871 42.9023 31.0099 43.0442 30.7891 43.2622ZM20.446 45.1999C20.446 45.2225 20.4836 45.241 20.5295 45.241C20.5755 45.241 20.613 45.2225 20.613 45.1999C20.613 45.1774 20.5755 45.1589 20.5295 45.1589C20.4836 45.1589 20.446 45.1774 20.446 45.1999ZM20.6965 45.282C20.6965 45.3046 20.7341 45.323 20.78 45.323C20.826 45.323 20.8635 45.3046 20.8635 45.282C20.8635 45.2594 20.826 45.241 20.78 45.241C20.7341 45.241 20.6965 45.2594 20.6965 45.282Z" fill="#FBB532"/>
<path fill-rule="evenodd" clip-rule="evenodd" d="M9.46536 7.41248C9.43092 7.43433 9.35107 7.45259 9.28792 7.4529C9.22477 7.4532 9.1731 7.47197 9.1731 7.49454C9.1731 7.51711 9.14691 7.53557 9.11497 7.53557C9.01852 7.53557 8.63545 7.90154 8.56364 8.06227C8.52679 8.14495 8.47919 8.24947 8.458 8.2946C8.41291 8.3905 8.44078 16.0772 8.49245 17.7927C8.53368 19.1603 8.59954 19.3309 9.19753 19.6184C10.09 20.0475 10.9367 19.4922 10.9974 18.4379L11.0215 18.0184H21.172H31.3223V14.7771V11.5359H21.1602H10.9981L11.0201 9.91718C11.0321 9.02686 11.0276 8.26988 11.0101 8.23501C10.9925 8.20003 10.9555 8.12351 10.9278 8.06484C10.8422 7.88339 10.4722 7.53557 10.3648 7.53557C10.3294 7.53557 10.3004 7.51711 10.3004 7.49454C10.3004 7.47197 10.244 7.45351 10.1751 7.45351C10.1063 7.45351 10.0499 7.43505 10.0499 7.41248C10.0499 7.35966 9.54845 7.35966 9.46536 7.41248ZM32.6153 11.5655C32.6042 11.5943 32.5999 13.058 32.6058 14.8182L32.6166 18.0184L35.6853 18.0389L38.7541 18.0594L38.9719 18.1781C39.2193 18.3128 39.3754 18.4701 39.5265 18.7367L39.6308 18.921L39.6517 30.1629C39.6632 36.3459 39.682 41.3863 39.6935 41.3637C39.705 41.3412 39.705 36.2731 39.6935 30.1014L39.6726 18.88L39.5682 18.697C39.1526 17.9683 39.0893 17.9569 35.4954 17.9569H32.6375V14.7771V11.5974L37.0318 11.5975C41.2844 11.5977 41.4303 11.6003 41.557 11.6761C41.6922 11.7571 41.9063 12.0037 41.9063 12.0784C41.9063 12.1017 41.9345 12.1437 41.9689 12.1718C42.043 12.2322 42.0612 12.1227 41.9913 12.0367C41.5366 11.4777 42.1174 11.5376 37.031 11.5245C33.4962 11.5154 32.6317 11.5235 32.6153 11.5655ZM31.3014 14.7771V17.9569H21.1558H11.0102V14.7771V11.5974H21.1558H31.3014V14.7771ZM42.0316 12.6002C42.0316 12.7796 42.0492 12.9103 42.0733 12.9103C42.0971 12.9103 42.1151 12.7881 42.1151 12.6256C42.1151 12.469 42.0963 12.3294 42.0733 12.3154C42.0469 12.2994 42.0316 12.4039 42.0316 12.6002ZM19.2352 22.4586C18.9738 22.4886 16.3372 25.1214 16.2754 25.4145C16.2272 25.6421 16.2043 43.363 16.2519 43.4387C16.265 43.4596 16.3123 43.4767 16.3569 43.4767C16.4014 43.4767 16.4379 43.4952 16.4379 43.5178C16.4379 43.5403 16.4754 43.5588 16.5214 43.5588C16.5673 43.5588 16.6049 43.5744 16.6049 43.5933C16.6049 43.6124 16.6941 43.6724 16.8032 43.7267C16.9123 43.7811 17.0078 43.8393 17.0154 43.8562C17.0231 43.8732 17.0654 43.887 17.1093 43.887C17.1534 43.887 17.1895 43.9009 17.1897 43.9178C17.1901 43.9546 17.3923 44.0511 17.4691 44.0511C17.5135 44.0511 17.5234 42.3861 17.5234 34.9138V25.7765L18.5764 24.7388L19.6294 23.7012L25.4549 23.6907L31.2805 23.6804V23.0649V22.4495L25.3309 22.4457C22.0587 22.4437 19.3156 22.4495 19.2352 22.4586ZM32.6375 23.1668V23.8862L33.5977 24.8292L34.558 25.7721V31.716V37.66L34.7426 37.9528C35.3551 38.9247 35.6176 40.3324 35.3485 41.2025C35.3271 41.2718 35.3096 41.3769 35.3096 41.4361C35.3096 41.4951 35.2908 41.5549 35.2678 41.5689C35.2448 41.5828 35.2261 41.6269 35.2261 41.6669C35.2261 41.9156 35.0261 42.225 34.7917 42.3391L34.558 42.4529V43.4982C34.558 44.4 34.5666 44.5435 34.6207 44.5435C34.6551 44.5435 34.6833 44.525 34.6833 44.5024C34.6833 44.4799 34.7209 44.4614 34.7668 44.4614C34.8127 44.4614 34.8503 44.443 34.8503 44.4204C34.8503 44.3978 34.8787 44.3794 34.9134 44.3794C34.9482 44.3794 35.0093 44.3628 35.0491 44.3426C35.089 44.3224 35.2532 44.2441 35.4139 44.1685C35.5747 44.0929 35.7125 44.0171 35.7201 44C35.7278 43.983 35.768 43.9691 35.8096 43.9691C35.9118 43.9691 35.9501 43.8542 35.8731 43.7785C35.818 43.7242 35.8106 42.6335 35.8106 34.5275C35.8106 26.6592 35.802 25.322 35.7512 25.2272C35.5833 24.9142 32.9966 22.4793 32.8149 22.463L32.6375 22.4474V23.1668ZM20.906 24.9223C20.756 25.075 20.5771 25.3064 20.5083 25.4365C20.3982 25.645 20.3484 25.6919 20.0878 25.8329C19.8196 25.9781 19.3187 26.4325 19.3187 26.5306C19.3187 26.6112 19.8246 27.0569 20.091 27.2111C20.3569 27.3651 20.4804 27.4985 20.6012 27.7627C20.6167 27.7966 20.6819 27.8797 20.7462 27.9474C20.8105 28.0151 20.8632 28.0828 20.8633 28.0977C20.8638 28.1715 21.2015 28.3825 21.2798 28.3581C21.4491 28.3052 22.0326 27.6118 22.0326 27.4634C22.0326 27.4114 22.1452 27.3248 22.304 27.2548C22.5019 27.1675 22.8736 26.8758 23.0224 26.6911L23.1584 26.5221L23.0754 26.4074C22.9366 26.2159 22.5991 25.9403 22.3321 25.8005C22.1127 25.6855 22.0641 25.6373 21.9635 25.4353C21.841 25.1894 21.342 24.6445 21.2393 24.6445C21.206 24.6445 21.0561 24.7696 20.906 24.9223ZM30.9048 24.9097C30.7615 25.0554 30.5807 25.2954 30.5031 25.4429C30.4255 25.5904 30.3401 25.7111 30.3134 25.7112C30.128 25.7117 29.3391 26.3742 29.3391 26.5293C29.3391 26.6327 29.837 27.0732 30.1204 27.2206C30.3445 27.3373 30.3976 27.3885 30.5114 27.5983C30.8013 28.133 30.9543 28.2384 31.1657 28.0493C31.3229 27.9088 31.3801 27.3524 31.2373 27.3524C31.118 27.3524 30.4245 26.6554 30.4254 26.5363C30.4262 26.4154 31.0291 25.7741 31.2028 25.7091C31.2992 25.6731 31.3014 25.6608 31.3014 25.1584C31.3014 24.5353 31.2837 24.5242 30.9048 24.9097ZM24.6029 25.9376C24.1158 26.4139 24.1161 26.3863 24.5907 26.8507C25.0925 27.3418 25.0826 27.3419 25.5753 26.8414C26.0426 26.3667 26.0436 26.4114 25.5556 25.9374C25.0642 25.4599 25.0913 25.4599 24.6029 25.9376ZM27.1391 25.9291C26.651 26.4087 26.6512 26.3946 27.1289 26.8604C27.6309 27.35 27.6016 27.3498 28.097 26.8682C28.5715 26.4069 28.5716 26.4115 28.0753 25.9259C27.5988 25.4596 27.6169 25.4595 27.1391 25.9291ZM21.7119 26.0752C21.9112 26.2754 22.0743 26.4717 22.0743 26.5114C22.0743 26.5962 21.3881 27.2985 21.2689 27.3357C21.1688 27.3669 20.4043 26.6431 20.4043 26.5171C20.4043 26.3898 21.1074 25.7113 21.2393 25.7113C21.3228 25.7113 21.4371 25.7993 21.7119 26.0752ZM32.6375 26.5086C32.6375 27.0997 32.6368 27.0991 32.9237 26.801C33.1949 26.5191 33.1583 26.3573 32.7598 26.0785L32.6375 25.993V26.5086ZM25.7067 27.4213C25.6432 27.4343 25.2425 27.7927 24.6838 28.3362C23.5283 29.4603 23.8238 29.3383 22.1976 29.3628C20.7511 29.3847 20.7921 29.379 20.5465 29.594C20.3476 29.7682 20.3428 29.8028 20.3207 31.2091C20.2955 32.8054 20.4193 32.5163 19.2761 33.6503C17.9482 34.9677 17.9498 34.8773 19.2327 36.1531C20.4284 37.342 20.2958 37.0366 20.3208 38.6599C20.3433 40.1255 20.3319 40.0552 20.584 40.2861C20.7776 40.4636 20.9261 40.4811 22.2323 40.4814C23.7619 40.4817 23.5434 40.3917 24.6528 41.4787C25.9928 42.7919 25.9345 42.7919 27.281 41.4783C28.0918 40.6873 28.3468 40.4816 28.5164 40.4816C28.6016 40.4816 28.6292 40.3929 28.6296 40.1192C28.6307 39.3712 28.9597 38.4254 29.4331 37.8097C29.6324 37.5505 30.2026 36.8798 30.3006 36.789C30.7384 36.3841 31.6244 35.2314 31.4997 35.2289C31.383 35.2267 31.0628 34.9396 30.9256 34.7142C30.6394 34.2442 30.7364 33.5647 31.1437 33.1854L31.3014 33.0385V31.5132V29.9877L31.2039 29.9249C31.1503 29.8905 31.0328 29.75 30.943 29.6129L30.7795 29.3636L29.5896 29.3631C28.1512 29.3624 28.3807 29.4586 27.3141 28.4093C26.2623 27.3745 26.1811 27.3245 25.7067 27.4213ZM33.2814 34.3889C33.1841 34.6548 33.1269 34.7518 32.966 34.9233C32.8678 35.028 32.7161 35.1495 32.6289 35.1932C32.4307 35.2926 32.4264 35.2706 32.7052 35.5827C32.9856 35.8965 32.954 35.8923 33.2103 35.6505C33.585 35.2969 33.6858 35.059 33.5974 34.7366C33.5338 34.5043 33.3238 34.2732 33.2814 34.3889ZM39.324 41.5741C39.177 41.728 39.2577 41.7494 39.4122 41.5975C39.495 41.5162 39.5223 41.4672 39.4839 41.4688C39.45 41.4702 39.3779 41.5176 39.324 41.5741ZM38.9837 41.8766C38.9506 41.9217 38.8995 41.9587 38.8701 41.9587C38.8407 41.9587 38.8167 41.9771 38.8167 41.9997C38.8167 42.0569 38.8964 42.051 38.9554 41.9892C39.0655 41.8741 39.1171 41.7945 39.0815 41.7945C39.0608 41.7945 39.0168 41.8315 38.9837 41.8766ZM20.4408 42.113C20.2836 42.2702 20.1096 42.4963 20.0377 42.6371C19.9267 42.8541 19.8837 42.8972 19.6893 42.9858C19.4565 43.092 18.8595 43.6193 18.8595 43.7188C18.8595 43.846 19.3945 44.3009 19.7567 44.4815C19.8699 44.538 19.9502 44.6189 20.0072 44.7338C20.161 45.0439 20.2817 45.1581 20.4565 45.1585C20.5426 45.1587 20.613 45.1774 20.613 45.1999C20.613 45.2225 20.6694 45.241 20.7383 45.241C20.8072 45.241 20.8635 45.2594 20.8635 45.282C20.8635 45.3046 20.9186 45.323 20.986 45.323C21.1258 45.323 21.3176 45.1195 21.5092 44.7677C21.5995 44.602 21.6686 44.537 21.8583 44.4395C22.1489 44.29 22.6588 43.827 22.6588 43.7126C22.6588 43.5952 22.173 43.1522 21.8808 43.0034C21.6676 42.8947 21.6174 42.8447 21.4899 42.6136C21.3397 42.3412 20.8734 41.8352 20.7735 41.8361C20.7427 41.8364 20.593 41.961 20.4408 42.113ZM38.6124 42.1471C38.5606 42.2056 38.5279 42.263 38.5397 42.2745C38.5615 42.2959 38.7749 42.1041 38.7749 42.0631C38.7749 42.0097 38.6994 42.0487 38.6124 42.1471ZM30.4514 42.744C30.4162 42.8358 30.3312 42.905 30.1214 43.0134C29.8178 43.1702 29.3391 43.5993 29.3391 43.7147C29.3391 43.8252 29.8772 44.3074 30.1417 44.434C30.3506 44.534 30.3979 44.5802 30.5174 44.8007C30.6513 45.0475 31.1146 45.5692 31.2 45.5692C31.3777 45.5692 31.7799 45.1578 31.9775 44.7738C32.0753 44.5837 32.1273 44.5338 32.3307 44.4343C32.592 44.3066 33.1385 43.8221 33.1385 43.7182C33.1385 43.6011 32.6554 43.168 32.3479 43.0091C32.1857 42.9254 32.0529 42.8308 32.0529 42.7989C32.0529 42.6931 31.9123 42.6673 31.2029 42.6438L30.4988 42.6205L30.4514 42.744ZM24.6153 43.1357C24.1185 43.6153 24.1203 43.592 24.5481 44.0112C24.9645 44.4192 25.0524 44.481 25.144 44.4305C25.2849 44.353 25.9572 43.6681 25.9572 43.6021C25.9572 43.5227 25.1609 42.7382 25.0804 42.7382C25.051 42.7382 24.8417 42.9171 24.6153 43.1357ZM27.5009 42.8089C27.2765 42.9625 26.7505 43.5233 26.7505 43.609C26.7505 43.7128 27.4303 44.396 27.5772 44.4397C27.6586 44.4639 27.7333 44.4103 28.0678 44.0881C28.5792 43.5951 28.5792 43.6044 28.0713 43.1151C27.6443 42.7035 27.6501 42.7067 27.5009 42.8089ZM21.2296 43.2775C21.7002 43.7357 21.7003 43.6958 21.2265 44.1616C20.7532 44.6267 20.7789 44.626 20.319 44.1835C19.84 43.7226 19.84 43.7256 20.3095 43.2621C20.7643 42.8132 20.7523 42.813 21.2296 43.2775ZM31.6885 43.2621C31.9556 43.5258 32.0529 43.6499 32.0529 43.7266C32.0529 43.8494 31.3612 44.5435 31.2388 44.5435C31.1164 44.5435 30.4246 43.8494 30.4246 43.7266C30.4246 43.5943 31.1082 42.9023 31.2388 42.9023C31.2905 42.9023 31.4677 43.0442 31.6885 43.2621Z" fill="#FBDB93"/>
<path fill-rule="evenodd" clip-rule="evenodd" d="M29.1408 5.01938C29.0662 5.02964 29.0051 5.05528 29.0051 5.07641C29.0051 5.09754 28.9675 5.11488 28.9216 5.11488C28.8757 5.11488 28.8381 5.13334 28.8381 5.15591C28.8381 5.17847 28.8005 5.19694 28.7546 5.19694C28.7087 5.19694 28.6711 5.2154 28.6711 5.23797C28.6711 5.26053 28.6335 5.27899 28.5876 5.27899C28.5417 5.27899 28.5041 5.29438 28.5041 5.31305C28.5041 5.33182 28.4526 5.37336 28.3898 5.40536C28.2145 5.4947 27.9196 5.80026 27.9196 5.89258C27.9196 5.93781 27.854 6.07557 27.774 6.19865C27.4335 6.72167 27.373 6.99256 27.3409 8.14085L27.3142 9.09477L28.0031 9.09405C28.3952 9.09374 28.668 9.07846 28.6362 9.05866C28.5285 8.99158 28.5873 7.23237 28.7051 6.99769C29.2289 5.95433 30.6785 5.98059 31.2095 7.04313L31.3223 7.26889L31.3108 17.628L31.2994 27.9871L31.1608 28.1314C30.8573 28.4474 30.8241 28.5261 30.823 28.9304C30.822 29.2804 30.8918 29.568 30.9777 29.568C30.995 29.568 31.0092 29.5927 31.0092 29.623C31.0092 29.6531 31.0843 29.7463 31.1762 29.8298L31.3432 29.9816V31.5105V33.0393L31.1935 33.1808C30.5636 33.7757 30.6971 34.8157 31.4482 35.166C31.5263 35.2024 31.601 35.2494 31.6143 35.2706C31.6351 35.3036 31.1914 35.834 30.3611 36.7685C29.8461 37.3482 29.5292 37.7272 29.3774 37.9449C29.1874 38.2175 28.9237 38.7582 28.8605 39.0046C28.8461 39.061 28.8087 39.1995 28.7775 39.3123C28.5429 40.1588 28.6541 41.3996 29.0296 42.1275C29.3434 42.736 33.5158 42.8421 34.8572 42.2759C35.243 42.113 35.5278 40.2489 35.2976 39.3944C35.1604 38.8852 35.1119 38.7343 35.0447 38.6066C35.0067 38.5344 34.9756 38.4467 34.9756 38.4117C34.9756 38.3768 34.959 38.3481 34.9387 38.3481C34.9184 38.3481 34.8913 38.3158 34.8786 38.2763C34.8485 38.1831 34.7238 37.9837 34.6311 37.8806C34.5909 37.8359 34.5581 37.7818 34.5581 37.7605C34.5581 37.7393 34.5252 37.6919 34.485 37.6554C34.4448 37.6189 34.3091 37.469 34.1833 37.3223C34.0577 37.1757 33.9449 37.0465 33.9328 37.0352C33.9208 37.0239 33.8174 36.9039 33.7031 36.7685C33.5888 36.6331 33.4855 36.5131 33.4734 36.5018C33.4614 36.4906 33.3879 36.4075 33.3101 36.3172C33.1673 36.1514 32.8526 35.798 32.5795 35.4966C32.3902 35.2878 32.3919 35.2588 32.5991 35.1669C33.3654 34.8274 33.4883 33.7999 32.838 33.1693L32.5957 32.9344V31.4758V30.0173L32.6897 29.9814C33.4306 29.6984 33.4305 28.4376 32.6895 27.9394L32.5953 27.8762L32.5959 17.7572C32.5964 10.4425 32.5834 7.54716 32.5492 7.30992C32.5232 7.12939 32.4987 6.88014 32.4946 6.75603C32.4818 6.35908 31.9588 5.61851 31.5409 5.40536C31.4781 5.37336 31.4267 5.33182 31.4267 5.31305C31.4267 5.29438 31.3891 5.27899 31.3432 5.27899C31.2973 5.27899 31.2597 5.26053 31.2597 5.23797C31.2597 5.2154 31.2221 5.19694 31.1762 5.19694C31.1303 5.19694 31.0927 5.17847 31.0927 5.15591C31.0927 5.13334 31.0567 5.11488 31.0126 5.11488C30.9687 5.11488 30.9248 5.0918 30.9152 5.06359C30.8977 5.0119 29.4567 4.976 29.1408 5.01938ZM8.48141 17.7517C8.48141 18.3046 8.48736 18.5308 8.49457 18.2543C8.50177 17.9779 8.50177 17.5256 8.49457 17.2491C8.48736 16.9727 8.48141 17.1989 8.48141 17.7517Z" fill="#DC522E"/>
</svg>
