<svg width="52" height="51" viewBox="0 0 52 51" fill="none" xmlns="http://www.w3.org/2000/svg">
<rect width="52" height="51" rx="25.5" fill="#E1CDA2"/>
<path d="M34.75 39.25C33.6042 39.25 32.6302 38.849 31.8281 38.0469C31.026 37.2448 30.625 36.2708 30.625 35.125C30.625 34.9646 30.6365 34.7982 30.6594 34.6259C30.6823 34.4535 30.7167 34.2991 30.7625 34.1625L21.0688 28.525C20.6792 28.8687 20.2438 29.1383 19.7625 29.3335C19.2812 29.5287 18.7771 29.6259 18.25 29.625C17.1042 29.625 16.1302 29.224 15.3281 28.4219C14.526 27.6198 14.125 26.6458 14.125 25.5C14.125 24.3542 14.526 23.3802 15.3281 22.5781C16.1302 21.776 17.1042 21.375 18.25 21.375C18.7771 21.375 19.2812 21.4726 19.7625 21.6679C20.2438 21.8631 20.6792 22.1322 21.0688 22.475L30.7625 16.8375C30.7167 16.7 30.6823 16.5455 30.6594 16.3741C30.6365 16.2027 30.625 16.0363 30.625 15.875C30.625 14.7292 31.026 13.7552 31.8281 12.9531C32.6302 12.151 33.6042 11.75 34.75 11.75C35.8958 11.75 36.8698 12.151 37.6719 12.9531C38.474 13.7552 38.875 14.7292 38.875 15.875C38.875 17.0208 38.474 17.9948 37.6719 18.7969C36.8698 19.599 35.8958 20 34.75 20C34.2229 20 33.7188 19.9028 33.2375 19.7085C32.7563 19.5142 32.3208 19.2447 31.9312 18.9L22.2375 24.5375C22.2833 24.675 22.3177 24.8299 22.3406 25.0022C22.3635 25.1746 22.375 25.3405 22.375 25.5C22.375 25.6604 22.3635 25.8268 22.3406 25.9991C22.3177 26.1715 22.2833 26.3259 22.2375 26.4625L31.9312 32.1C32.3208 31.7562 32.7563 31.4872 33.2375 31.2929C33.7188 31.0985 34.2229 31.0009 34.75 31C35.8958 31 36.8698 31.401 37.6719 32.2031C38.474 33.0052 38.875 33.9792 38.875 35.125C38.875 36.2708 38.474 37.2448 37.6719 38.0469C36.8698 38.849 35.8958 39.25 34.75 39.25Z" fill="black"/>
</svg>
